<svg xmlns="http://www.w3.org/2000/svg" xmlns:xlink="http://www.w3.org/1999/xlink" viewBox="0 0 8369.29 2022.01"><defs><style>.cls-1{fill:#300;}.cls-2{fill:#ff9a00;}.cls-3{isolation:isolate;}.cls-107,.cls-21,.cls-4{fill:#fff;}.cls-5{fill:#3879a3;}.cls-6{fill:#005489;}.cls-7{fill:#6cc5de;}.cls-110,.cls-8{fill:#60afc5;}.cls-17,.cls-9{fill:#e9a5d0;}.cls-10{fill:#763786;}.cls-11{fill:#5373ab;}.cls-12{fill:#5b5472;}.cls-13{fill:#bcb8d8;}.cls-14,.cls-66{fill:#03566f;}.cls-15,.cls-74{fill:#8277b7;}.cls-16{fill:#968ece;opacity:0.58;}.cls-115,.cls-16,.cls-17,.cls-45,.cls-53,.cls-56{mix-blend-mode:multiply;}.cls-18{fill:#ff0303;}.cls-19{fill:#0c0c0c;}.cls-20{fill:#2be5f9;}.cls-106,.cls-21,.cls-46,.cls-50{opacity:0.57;}.cls-22{fill:#544866;}.cls-23{fill:#facd00;}.cls-24{fill:#68597e;}.cls-25{fill:#584c6b;}.cls-26{fill:#a590c9;}.cls-27{fill:#433a52;}.cls-28,.cls-51{fill:#45cfb3;}.cls-29{fill:#1e191b;}.cls-30{fill:#33292c;}.cls-31{fill:#6d5d88;}.cls-32{fill:#7e6da3;}.cls-33{fill:#fdb604;}.cls-34,.cls-45{fill:#afa3ca;}.cls-35,.cls-46{fill:#cabdda;}.cls-36{fill:#594d51;}.cls-37{fill:#473c3f;}.cls-38{fill:#4c1328;}.cls-39{fill:#f5d384;}.cls-40{fill:#c85211;}.cls-41{fill:#1c1713;}.cls-42,.cls-53,.cls-63{fill:#701b32;}.cls-43{fill:red;}.cls-44{fill:#83ff33;}.cls-45{opacity:0.6;}.cls-47{fill:#4c182b;}.cls-105,.cls-48{fill:#706368;}.cls-49{fill:#aa8d99;}.cls-50{fill:#877b80;}.cls-107,.cls-110,.cls-111,.cls-118,.cls-51,.cls-61,.cls-63,.cls-66,.cls-89{mix-blend-mode:screen;}.cls-51{opacity:0.61;}.cls-52{fill:#ffc0c0;}.cls-53{opacity:0.24;}.cls-54{fill:#2fc670;}.cls-55{fill:#4e9963;}.cls-56,.cls-57{fill:#047191;}.cls-56{opacity:0.4;}.cls-58{fill:#98ddba;}.cls-59{fill:#1b132b;}.cls-60,.cls-61{fill:#60596b;}.cls-62{fill:#63182c;}.cls-63,.cls-88{opacity:0.53;}.cls-64{fill:#ff681d;}.cls-65{fill:#00ff30;}.cls-107,.cls-110,.cls-66{opacity:0.28;}.cls-67{fill:#1b191e;}.cls-68{fill:#034b61;}.cls-69{fill:#02475c;}.cls-70{fill:#948add;}.cls-71{fill:#043340;}.cls-72{fill:#375363;}.cls-73{fill:#a3a1d3;}.cls-74{opacity:0.19;}.cls-75{fill:#77c660;}.cls-76{fill:#003761;}.cls-77{fill:#4fb0c3;}.cls-78{fill:#00688a;}.cls-79{fill:#93cedf;}.cls-80{fill:#429731;}.cls-81{fill:#55c313;}.cls-82{fill:#98d078;}.cls-83{fill:#ff6d00;}.cls-111,.cls-84{fill:#ffa300;}.cls-85{fill:#23161a;}.cls-86{fill:#ad5b02;}.cls-87{fill:#fc7e29;}.cls-88{fill:#8c3f0a;}.cls-101,.cls-89,.cls-99{fill:#f99048;}.cls-89{opacity:0.33;}.cls-90{fill:#441320;}.cls-91{fill:#ffb236;}.cls-92{fill:#bf4f02;}.cls-93{fill:#ffa05f;}.cls-94{fill:#844419;}.cls-95{fill:#191715;}.cls-96{fill:#350d17;}.cls-97{fill:#fcb632;}.cls-98{fill:#33282c;}.cls-100,.cls-117,.cls-99{mix-blend-mode:overlay;}.cls-102{fill:#fc5a00;}.cls-103{fill:#683925;}.cls-104{fill:#409fb5;}.cls-105{opacity:0.42;}.cls-106{fill:#fffdfe;}.cls-108{fill:#023747;}.cls-109{fill:#423539;}.cls-111{opacity:0.41;}.cls-112{fill:#003b5c;}.cls-113{fill:#373042;}.cls-114,.cls-115{fill:#7c6e91;}.cls-115{opacity:0.31;}.cls-116,.cls-117{fill:#8f81a5;}.cls-118{fill:#9e91b7;opacity:0.63;}.cls-119{fill:#50485b;}.cls-120{fill:#2ab7c6;}</style><symbol id="Adobe_ilustrator" data-name="Adobe_ilustrator" viewBox="0 0 145.89 143.83"><path class="cls-1" d="M119.93,123.59l-51.32,18a38.83,38.83,0,0,1-49.49-23.75L2.21,69.72A38.8,38.8,0,0,1,26,20.24l51.32-18A38.8,38.8,0,0,1,126.76,26l16.92,48.15A38.8,38.8,0,0,1,119.93,123.59Z"/><path class="cls-2" d="M94.57,90.12l-10.1,3.55-8.57-11L55.74,89.74,56,103.67,48,106.5,46.93,48l11.63-4.09ZM70.71,76,54.85,55.28l.57,26.07Z"/><path class="cls-2" d="M93.87,41.7l-8.76,3.08-3.2-9.1,8.76-3.08ZM109.09,85l-8.76,3.08L86.7,49.31l8.76-3.07Z"/></symbol></defs><g class="cls-3"><g id="Layer_1" data-name="Layer 1"><rect class="cls-4" x="6369.29" width="2000" height="2000"/><path class="cls-5" d="M658.13,1064.08l32.35,144.59a12.27,12.27,0,1,0,23.95-5.36c-.1-.4-.21-.82-.34-1.2l-46.9-140.55c-.82-2.46-.56-5.56-3-4.73C661.85,1057.6,657,1057.76,658.13,1064.08Z" transform="translate(1704.4 -21.68)"/><path class="cls-6" d="M661.46,1062.14l32.35,144.59a12.27,12.27,0,1,0,24-5.36,11.81,11.81,0,0,0-.34-1.2l-46.9-140.54a4.71,4.71,0,0,0-9.06,2.51Z" transform="translate(1704.4 -21.68)"/><ellipse class="cls-7" cx="2358.7" cy="1040.23" rx="25.74" ry="30.64"/><path class="cls-8" d="M634.9,1061.91c0,16.92,11.52,30.63,25.74,30.63s25.73-13.71,25.73-30.63-11.52-30.64-25.73-30.64S634.9,1045,634.9,1061.91Z" transform="translate(1704.4 -21.68)"/><path class="cls-9" d="M727.45,1206l2.37,154.62L644,1357.35l37.7-151.59a12.93,12.93,0,0,1,10.85-9.7l20.24-2.68A12.93,12.93,0,0,1,727.45,1206Z" transform="translate(1704.4 -21.68)"/><polygon class="cls-10" points="2396.15 1254.11 2368.72 1254.11 2369.33 1251.66 2396.37 1251.66 2403.11 1173.58 2405.6 1173.25 2396.17 1282.39 2433.41 1286.29 2433.45 1288.75 2395.96 1284.83 2391.43 1337.31 2388.98 1337.22 2396.15 1254.11"/><path class="cls-10" d="M694.7,1300.71a1.08,1.08,0,1,0,1.08-1.07A1.08,1.08,0,0,0,694.7,1300.71Z" transform="translate(1704.4 -21.68)"/><path class="cls-10" d="M688.88,1269.77a1.28,1.28,0,1,0,1.28-1.28A1.28,1.28,0,0,0,688.88,1269.77Z" transform="translate(1704.4 -21.68)"/><path class="cls-8" d="M736,1381.45s-103.76,1.23-111.52-2.45,20.39-27.46,35.13-31.86c27.37-8.17,67,2,73.53,17.15S736,1381.45,736,1381.45Z" transform="translate(1704.4 -21.68)"/><path class="cls-11" d="M726.2,1373.28s3.68-2-2.86-17.16a15,15,0,0,0-1.37-2.45c5.43,3,9.41,6.67,11.12,10.62,6.53,15.12,2.86,17.16,2.86,17.16s-103.76,1.23-111.52-2.45c-2.13-1-1.56-3.53.7-6.74C653.28,1374.14,726.2,1373.28,726.2,1373.28Z" transform="translate(1704.4 -21.68)"/><polygon class="cls-12" points="2268.01 996.4 2263.1 996.4 2264.81 957.38 2266.3 957.38 2268.01 996.4"/><polygon class="cls-13" points="2263.95 977.03 2267.11 975.96 2267.07 974.91 2263.99 975.95 2263.95 977.03"/><polygon class="cls-13" points="2263.45 988.36 2267.68 988.81 2267.63 987.78 2263.49 987.34 2263.45 988.36"/><polygon class="cls-13" points="2263.77 981.05 2267.31 980.54 2267.27 979.52 2263.82 980.02 2263.77 981.05"/><polygon class="cls-13" points="2264.54 963.54 2266.6 964.31 2266.55 963.21 2264.58 962.48 2264.54 963.54"/><polygon class="cls-13" points="2264.32 968.62 2266.81 969.07 2266.77 968.03 2264.36 967.6 2264.32 968.62"/><polygon class="cls-13" points="2264.15 972.42 2266.93 971.81 2266.89 970.78 2264.19 971.37 2264.15 972.42"/><path class="cls-14" d="M580.38,1029.76H541.93a13.67,13.67,0,0,1,13.67-13.67h11.11a13.67,13.67,0,0,1,13.67,13.67Z" transform="translate(1704.4 -21.68)"/><path class="cls-15" d="M567.61,974.89a6.46,6.46,0,1,1-6.46-6.46A6.46,6.46,0,0,1,567.61,974.89Z" transform="translate(1704.4 -21.68)"/><path class="cls-16" d="M561.79,979.06a6.46,6.46,0,0,1-6.46-6.46,5.21,5.21,0,0,1,0-.55,6.45,6.45,0,1,0,12.22,3.38A6.44,6.44,0,0,1,561.79,979.06Z" transform="translate(1704.4 -21.68)"/><path class="cls-9" d="M556.33,938.35c39.3,2.16,89.85,47.84,106.67,107.29,15.86,59-39.59,119.23-117,116.29-77.36-4.21-127.8-60.81-106.57-118.11C461.65,986.18,517,936.88,556.33,938.35Z" transform="translate(1704.4 -21.68)"/><path class="cls-10" d="M662.79,1087.41l-40.06-11.22a69.89,69.89,0,0,0-12.19-78.06l12.61-22.48-1.77-1.85-12.63,22.5A68.13,68.13,0,0,0,515.37,994l-24.32-24.66L489.24,971l24.32,24.66a69.95,69.95,0,0,0-17.67,73.32l-60.39,13c.13.81.28,1.61.44,2.41l60.8-13.13a68.47,68.47,0,0,0,124.87,7.17l40.49,11.34C662.34,1089,662.57,1088.2,662.79,1087.41Zm-102,23.17c-35.21,0-63.85-29-63.85-64.55s28.64-64.55,63.85-64.55,63.85,29,63.85,64.55S596,1110.58,560.8,1110.58Z" transform="translate(1704.4 -21.68)"/><path class="cls-17" d="M575.56,1132.37c-77.35-4.22-127.79-60.81-106.57-118.12a196.59,196.59,0,0,1,30.51-52.13c-24.67,19.59-47.59,49.33-60.07,81.7-21.23,57.3,29.21,113.9,106.57,118.11,47,1.78,85.92-19.72,105.68-50.1C631.3,1125.45,605,1133.48,575.56,1132.37Z" transform="translate(1704.4 -21.68)"/><ellipse class="cls-7" cx="2154.94" cy="1039.36" rx="25.74" ry="30.64"/><ellipse class="cls-8" cx="2148.61" cy="1039.36" rx="25.74" ry="30.64"/><path class="cls-5" d="M446.72,1063.21,414.37,1207.8a12.27,12.27,0,0,1-23.95-5.36,12,12,0,0,1,.34-1.21l46.9-140.54c.82-2.47.56-5.56,3-4.74C443,1056.72,447.88,1056.88,446.72,1063.21Z" transform="translate(1704.4 -21.68)"/><path class="cls-6" d="M443.39,1061.27,411,1205.86a12.27,12.27,0,0,1-24-5.36c.09-.41.21-.82.33-1.21l46.91-140.54a4.71,4.71,0,0,1,9.06,2.52Z" transform="translate(1704.4 -21.68)"/><path class="cls-9" d="M377.4,1205.12,375,1359.74l85.78-3.27-37.7-151.59a13,13,0,0,0-10.85-9.69L392,1192.51A12.92,12.92,0,0,0,377.4,1205.12Z" transform="translate(1704.4 -21.68)"/><polygon class="cls-10" points="2117.49 1253.24 2144.92 1253.24 2144.31 1250.79 2117.28 1250.79 2110.53 1172.7 2108.05 1172.37 2117.47 1281.51 2080.23 1285.41 2080.2 1287.88 2117.68 1283.95 2122.21 1336.44 2124.66 1336.35 2117.49 1253.24"/><path class="cls-10" d="M410.14,1299.84a1.07,1.07,0,1,1-1.07-1.08A1.07,1.07,0,0,1,410.14,1299.84Z" transform="translate(1704.4 -21.68)"/><path class="cls-10" d="M416,1268.89a1.28,1.28,0,1,1-1.27-1.27A1.27,1.27,0,0,1,416,1268.89Z" transform="translate(1704.4 -21.68)"/><path class="cls-8" d="M368.9,1380.58s103.76,1.22,111.52-2.45-20.39-27.47-35.13-31.87c-27.37-8.17-67,2-73.53,17.16S368.9,1380.58,368.9,1380.58Z" transform="translate(1704.4 -21.68)"/><path class="cls-11" d="M378.65,1372.41s-3.68-2.05,2.86-17.16a14.58,14.58,0,0,1,1.37-2.45c-5.43,3-9.41,6.66-11.12,10.62-6.54,15.11-2.86,17.16-2.86,17.16s103.76,1.22,111.52-2.45c2.13-1,1.55-3.53-.7-6.75C451.57,1373.27,378.65,1372.41,378.65,1372.41Z" transform="translate(1704.4 -21.68)"/><path class="cls-18" d="M554.1,961.16a8.26,8.26,0,1,1,8.17-8.26A8.22,8.22,0,0,1,554.1,961.16Z" transform="translate(1704.4 -21.68)"/><path class="cls-19" d="M560.8,1102.88c-31.07,0-56.26-25.45-56.26-56.85s25.19-56.85,56.26-56.85,56.26,25.45,56.26,56.85S591.87,1102.88,560.8,1102.88Z" transform="translate(1704.4 -21.68)"/><ellipse class="cls-14" cx="2265.2" cy="1024.35" rx="49.76" ry="50.28"/><ellipse class="cls-20" cx="2265.2" cy="1024.35" rx="37.28" ry="37.68"/><path class="cls-21" d="M586.16,1075.17a19.94,19.94,0,1,1,19.73-19.94A19.84,19.84,0,0,1,586.16,1075.17Z" transform="translate(1704.4 -21.68)"/><path class="cls-22" d="M1466.57,1831.48c-4.13-4.12-13.46-23.69-5-39,8.79-15.86,31.68-19.66,68-11.26,36.51,8.42,67,1.54,83.76-18.88a47.19,47.19,0,0,0,6.68-49.64c-17.72-39.13-77.53-55.4-78.13-55.56l4.39-16.58c2.79.73,68.32,18.6,89.37,65.06a64.26,64.26,0,0,1-9,67.6c-21,25.65-57.78,34.66-100.89,24.71-37.1-8.56-46.52-1.21-48.85,2.34-4,6.07.53,17.24,2.15,19.42a3.43,3.43,0,0,0-.34-.38Z" transform="translate(1704.4 -21.68)"/><path class="cls-7" d="M1512,1648.89c0,16.92,11.52,30.64,25.73,30.64s25.74-13.72,25.74-30.64-11.52-30.64-25.74-30.64S1512,1632,1512,1648.89Z" transform="translate(1704.4 -21.68)"/><path class="cls-8" d="M1518.37,1648.89c0,16.92,11.52,30.64,25.74,30.64s25.73-13.72,25.73-30.64-11.52-30.64-25.73-30.64S1518.37,1632,1518.37,1648.89Z" transform="translate(1704.4 -21.68)"/><polygon class="cls-12" points="3151.48 1583.38 3146.57 1583.38 3148.28 1544.36 3149.77 1544.36 3151.48 1583.38"/><polygon class="cls-13" points="3147.41 1564.01 3150.58 1562.94 3150.54 1561.88 3147.46 1562.92 3147.41 1564.01"/><polygon class="cls-13" points="3146.92 1575.34 3151.14 1575.79 3151.1 1574.76 3146.97 1574.32 3146.92 1575.34"/><polygon class="cls-13" points="3147.24 1568.03 3150.78 1567.52 3150.74 1566.5 3147.28 1566.99 3147.24 1568.03"/><polygon class="cls-13" points="3148.01 1550.52 3150.07 1551.29 3150.02 1550.19 3148.05 1549.45 3148.01 1550.52"/><polygon class="cls-13" points="3147.78 1555.6 3150.28 1556.05 3150.23 1555.01 3147.83 1554.58 3147.78 1555.6"/><polygon class="cls-13" points="3147.62 1559.4 3150.4 1558.79 3150.35 1557.76 3147.66 1558.35 3147.62 1559.4"/><path class="cls-14" d="M1463.85,1616.74H1425.4a13.67,13.67,0,0,1,13.67-13.67h11.11a13.67,13.67,0,0,1,13.67,13.67Z" transform="translate(1704.4 -21.68)"/><path class="cls-15" d="M1451.08,1561.87a6.46,6.46,0,1,1-6.46-6.46A6.46,6.46,0,0,1,1451.08,1561.87Z" transform="translate(1704.4 -21.68)"/><path class="cls-16" d="M1445.26,1566a6.46,6.46,0,0,1-6.46-6.46,5.07,5.07,0,0,1,0-.55,6.45,6.45,0,1,0,12.22,3.38A6.44,6.44,0,0,1,1445.26,1566Z" transform="translate(1704.4 -21.68)"/><path class="cls-23" d="M1439.79,1525.33c39.31,2.16,89.87,47.84,106.68,107.29,15.85,59-39.59,119.22-117,116.29-77.35-4.22-127.8-60.81-106.57-118.11C1345.13,1573.15,1400.46,1523.86,1439.79,1525.33Z" transform="translate(1704.4 -21.68)"/><path class="cls-24" d="M1546.26,1674.39l-40.06-11.22a69.89,69.89,0,0,0-12.19-78.06l12.61-22.48-1.77-1.85-12.63,22.5a68.13,68.13,0,0,0-93.38-2.35l-24.32-24.66-1.81,1.66,24.32,24.66a69.95,69.95,0,0,0-17.67,73.32L1319,1669c.13.81.28,1.61.44,2.41l60.8-13.13a68.47,68.47,0,0,0,124.87,7.17l40.49,11.34C1545.81,1676,1546,1675.18,1546.26,1674.39Zm-102,23.17c-35.21,0-63.85-29-63.85-64.55s28.64-64.55,63.85-64.55,63.85,29,63.85,64.55S1479.48,1697.56,1444.27,1697.56Z" transform="translate(1704.4 -21.68)"/><path class="cls-17" d="M1459,1719.34c-77.35-4.21-127.79-60.81-106.57-118.11A196.59,196.59,0,0,1,1383,1549.1c-24.67,19.59-47.59,49.33-60.07,81.7-21.23,57.3,29.21,113.89,106.57,118.11,47,1.78,85.91-19.72,105.68-50.1C1514.77,1712.43,1488.49,1720.46,1459,1719.34Z" transform="translate(1704.4 -21.68)"/><path class="cls-7" d="M1359.75,1648c0,16.92-11.52,30.64-25.74,30.64s-25.73-13.72-25.73-30.64,11.52-30.64,25.73-30.64S1359.75,1631.09,1359.75,1648Z" transform="translate(1704.4 -21.68)"/><path class="cls-8" d="M1353.42,1648c0,16.92-11.53,30.64-25.74,30.64S1302,1664.93,1302,1648s11.52-30.64,25.73-30.64S1353.42,1631.09,1353.42,1648Z" transform="translate(1704.4 -21.68)"/><path class="cls-18" d="M1437.57,1548.13a8.25,8.25,0,1,1,8.17-8.25A8.21,8.21,0,0,1,1437.57,1548.13Z" transform="translate(1704.4 -21.68)"/><path class="cls-19" d="M1444.27,1689.86c-31.07,0-56.26-25.45-56.26-56.85s25.19-56.85,56.26-56.85,56.26,25.45,56.26,56.85S1475.34,1689.86,1444.27,1689.86Z" transform="translate(1704.4 -21.68)"/><path class="cls-14" d="M1444.27,1683.29c-27.48,0-49.76-22.51-49.76-50.28s22.28-50.28,49.76-50.28S1494,1605.24,1494,1633,1471.75,1683.29,1444.27,1683.29Z" transform="translate(1704.4 -21.68)"/><path class="cls-20" d="M1444.27,1670.68a37.68,37.68,0,1,1,37.28-37.67A37.47,37.47,0,0,1,1444.27,1670.68Z" transform="translate(1704.4 -21.68)"/><ellipse class="cls-21" cx="3174.02" cy="1620.53" rx="19.73" ry="19.94"/><path class="cls-25" d="M1258.07,1676.67a63.5,63.5,0,0,1-23.79-4.2c-13-5.19-22.26-15-27.6-29.26-8.26-22-2.48-48.68,14.72-68,12-13.51,27-19.2,41.42-24.7,12.73-4.84,24.75-9.42,33.54-19.15,6.74-7.44,12.93-20.72,11.15-30.66a13.05,13.05,0,0,0-7.43-9.83,8.58,8.58,0,1,1,7.92-15.22,30.11,30.11,0,0,1,16.39,22c2.92,16.21-5.89,34.79-15.3,45.2-11.57,12.79-26.1,18.32-40.16,23.67-13.11,5-25.48,9.7-34.71,20.07-12.82,14.41-17.44,34.74-11.48,50.58,3.63,9.66,9.49,16,17.92,19.38,17.68,7.08,46.49,1.46,83.3-16.27a8.58,8.58,0,1,1,7.44,15.46C1302.48,1669.67,1277.93,1676.67,1258.07,1676.67Z" transform="translate(1704.4 -21.68)"/><path class="cls-25" d="M1448.42,1828.44s-15.62,8.58-17.46,18.08,15.62,25.47,15.62,25.47,1.7-18.28,4.9-21.49c2.39-2.38,15.22-7.35,15.22-7.35s17.87,5.82,24,11.95,3.68,14.4,3.68,14.4,18.38-6.13,16.54-16.55-18.69-22.36-18.69-22.36,13.79-2.45,16.85,3.67c0,0-3.37-18.69-18.38-20.52s-23.28,2.75-23.28,2.75-7.36-8-17.47-9.8-21.75,17.46-21.75,17.46S1444,1824,1448.42,1828.44Z" transform="translate(1704.4 -21.68)"/><path class="cls-26" d="M1504.4,1821.77a20.34,20.34,0,0,0-10.66-8.39c-8-1.89-18.48-1.68-26.07,1.66a37.62,37.62,0,0,0-9.72-6.81c-9-4.32-14.2-3.8-22.69,5.69a61.89,61.89,0,0,0-7.06,10.23,73.24,73.24,0,0,1,7.91-9.44c9-8.89,14.8-11,31,3.25.27-.09,7.88-4.14,19.69-3.47,9.12.29,17.64,3.76,22.24,19.77A32.43,32.43,0,0,0,1504.4,1821.77Z" transform="translate(1704.4 -21.68)"/><path class="cls-25" d="M1329.09,1479.11s11.11-13.93,9.16-23.4-24.23-17.49-24.23-17.49,5.47,17.51,3.75,21.71c-1.29,3.12-11.22,12.65-11.22,12.65s-18.73,1.51-26.74-1.79-8.94-11.88-8.94-11.88-14.61,12.74-8.9,21.64,25.86,13.45,25.86,13.45-11.78,7.57-17,3.09c0,0,10.31,16,24.87,11.87s20.43-11.51,20.43-11.51,9.85,4.52,19.89,2.33,13.35-24.5,13.35-24.5S1334.9,1481.5,1329.09,1479.11Z" transform="translate(1704.4 -21.68)"/><path class="cls-26" d="M1327.28,1443.39a61.6,61.6,0,0,0-13.26-5.17c25.06,12.49,29.41,17.57,15.07,40.89a46.48,46.48,0,0,0,8.1-11.73C1342,1457.53,1340.5,1450.26,1327.28,1443.39Z" transform="translate(1704.4 -21.68)"/><path class="cls-26" d="M1329.09,1479.11c4.67,2,14.65-1,19.42-2.76-1.73,8.45-5.84,21.73-14.35,22.64-9.72,1.29-18.09-3-18.34-3-.35.32-3.21,4.33-10.86,8.22-12.13,6-21.71,6.84-32-5.47,4.59,1.11,11-2.09,14.91-4.73-14.7,8.14-16.89,1.85-20.33-.8,1.83,2.43,5.08,9,12.36,13.83,7,4.74,13.19,4.2,19.86,1.81,5.69-1.88,12.42-5.44,16.76-9.95,6.43,2.49,19.71,4.39,24.13-.37,6.72-6,8.37-18.27,9.63-24.32C1350.24,1474.2,1334.57,1481,1329.09,1479.11Z" transform="translate(1704.4 -21.68)"/><path class="cls-26" d="M1270.87,1458.91a33.63,33.63,0,0,0-9.35,10.27c-8,14.51,11.27,22.82,26.31,24.82C1256.63,1483,1256.92,1474.78,1270.87,1458.91Z" transform="translate(1704.4 -21.68)"/><path class="cls-27" d="M1479.59,1830.19c0,4.15-4.9,7.52-10.95,7.52s-11-3.37-11-7.52,4.91-7.53,11-7.53S1479.59,1826,1479.59,1830.19Z" transform="translate(1704.4 -21.68)"/><path class="cls-26" d="M1322.44,1483.75c.62,2.75-3.65,6.06-9.53,7.39s-11.16.18-11.79-2.57,3.65-6.06,9.53-7.39S1321.81,1481,1322.44,1483.75Z" transform="translate(1704.4 -21.68)"/><polygon points="4822.42 286.28 4818.94 286.28 4818.94 270.2 4803.14 264.94 4825.6 258.56 4818.94 254.88 4818.94 237.79 4822.42 237.79 4822.42 252.82 4834.68 259.6 4814.95 265.2 4822.42 267.69 4822.42 286.28"/><path class="cls-28" d="M3123.83,251.92a7.55,7.55,0,1,1-7.55-7.55A7.55,7.55,0,0,1,3123.83,251.92Z" transform="translate(1704.4 -21.68)"/><path class="cls-29" d="M3133.63,313.05c0,5-8.56,9-19.12,9s-19.12-4-19.12-9,8.56-9,19.12-9S3133.63,308.06,3133.63,313.05Z" transform="translate(1704.4 -21.68)"/><path class="cls-30" d="M3209.41,482.77a5.37,5.37,0,0,1,8.91.58,73,73,0,0,1,8.1,20c3.16,14.3,3.17,30.75,3.17,30.75l-4,3.64s-9.08-39.42-18.15-42C3202,494.24,3205.67,487.68,3209.41,482.77Z" transform="translate(1704.4 -21.68)"/><polygon class="cls-31" points="4914.37 446 4922.88 453.93 4891.78 519.75 4883.26 514.81 4914.37 446"/><polygon class="cls-32" points="4905.24 427.42 4918.2 443.12 4891.78 519.75 4881.49 513.78 4905.24 427.42"/><path class="cls-30" d="M3010.22,473s-9.25,11.64-12.74,25.81-3.87,30.6-3.87,30.6l3.87,3.8s10-39,19.11-41.24S3010.22,473,3010.22,473Z" transform="translate(1704.4 -21.68)"/><polygon class="cls-31" points="4719.15 442.11 4710.46 449.7 4740.02 516.74 4748.65 512.13 4719.15 442.11"/><polygon class="cls-32" points="4728.71 423.9 4715.39 439.08 4740.02 516.74 4750.44 511.17 4728.71 423.9"/><path class="cls-33" d="M3055.31,595.08s-.87,7.21,17.38,40.6l9.57-8,1.73-28.46Z" transform="translate(1704.4 -21.68)"/><path class="cls-33" d="M3173.1,600.83s.46,7.28-19.64,38.79l-9.08-8.87-.12-28.55Z" transform="translate(1704.4 -21.68)"/><path class="cls-34" d="M3018.52,444.44s91.55-124.46,186.57,0c0,0-11.59,125.22-28.39,159.37,0,0-72.43,24.28-121.1,0C3055.6,603.81,3027.79,531.71,3018.52,444.44Z" transform="translate(1704.4 -21.68)"/><path class="cls-35" d="M3052.89,411.34c-1.56,4.11-2.38,6.6-2.38,6.6,3.75,78.61,12.13,148.78,18,191.06,32.39,10.29,70.79,4.17,92-.79,7.64-72.34,12.55-190.27,12.55-190.27-1.09-3.18-2.18-6.24-3.27-9.21C3123.64,374.82,3081,391.05,3052.89,411.34Z" transform="translate(1704.4 -21.68)"/><path class="cls-30" d="M3093.78,639.47c0,4.61-4.53,8.35-10.11,8.35s-10.11-3.74-10.11-8.35,4.53-8.35,10.11-8.35S3093.78,634.86,3093.78,639.47Z" transform="translate(1704.4 -21.68)"/><path class="cls-30" d="M3131.54,641.47c-.21,4.6,4.28,8.75,10,9.26s10.58-2.81,10.8-7.41-4.29-8.74-10-9.25S3131.75,636.87,3131.54,641.47Z" transform="translate(1704.4 -21.68)"/><path class="cls-30" d="M3147.15,676.66a35.35,35.35,0,1,1-35.34-35.7A35.53,35.53,0,0,1,3147.15,676.66Z" transform="translate(1704.4 -21.68)"/><path class="cls-36" d="M3143.14,669.82a24.68,24.68,0,1,1-24.68-24.93A24.81,24.81,0,0,1,3143.14,669.82Z" transform="translate(1704.4 -21.68)"/><path class="cls-34" d="M2989.91,516l-4.92,9.48s-28.68,9.87-31.58,73.23c0,0,12.46,28.08,61.71,8.35,0,0,1.64-54.26-10.14-69.69l3.77-6.2S2999.18,516,2989.91,516Z" transform="translate(1704.4 -21.68)"/><path class="cls-32" d="M2981.87,594.55C2976.92,564,2994.51,531,2994.51,531l5.53-10.15c-3.06-2.7-6.61-4.88-10.13-4.88l-4.92,9.48s-28.68,9.87-31.58,73.23c0,0,7.22,16.26,32.38,15.34C2984.54,609.15,2983.2,602.79,2981.87,594.55Z" transform="translate(1704.4 -21.68)"/><path class="cls-33" d="M2947.62,594.55v29.6s1.45,10.75,25.2,13,44-8,44-8l2.61-27.32S2985.57,623,2947.62,594.55Z" transform="translate(1704.4 -21.68)"/><path class="cls-30" d="M2947.62,628.7l13,53.12h7.83v-41S2953.56,636.48,2947.62,628.7Z" transform="translate(1704.4 -21.68)"/><path class="cls-30" d="M2996.83,641v38.93h5.9l13.51-44.71S3004.65,641,2996.83,641Z" transform="translate(1704.4 -21.68)"/><path class="cls-37" d="M2967.61,641c0,1.52,13,48.19,13,48.19h12.75l6.09-48.19Z" transform="translate(1704.4 -21.68)"/><path class="cls-35" d="M3233.59,520.86l4.7,9.67s28.44,11,29.86,74.46c0,0-13.1,27.57-61.87,5.89,0,0-.38-54.31,11.75-69.26l-3.62-6.34S3224.32,520.49,3233.59,520.86Z" transform="translate(1704.4 -21.68)"/><path class="cls-34" d="M3227.67,535.89l-4.49-10.4a53.59,53.59,0,0,0-8.77,9.79l3.62,6.34c-12.13,15-11.75,69.26-11.75,69.26,13.77,6.12,24.69,8.31,33.28,8.31C3224.58,598.81,3227.67,535.89,3227.67,535.89Z" transform="translate(1704.4 -21.68)"/><path class="cls-38" d="M3247.47,551.41a2.57,2.57,0,1,1-2.57-2.57A2.57,2.57,0,0,1,3247.47,551.41Z" transform="translate(1704.4 -21.68)"/><path class="cls-38" d="M3251.17,565.35a1.85,1.85,0,1,1-1.85-1.85A1.85,1.85,0,0,1,3251.17,565.35Z" transform="translate(1704.4 -21.68)"/><path class="cls-38" d="M3251.76,579.61a1.22,1.22,0,1,1-1.22-1.22A1.22,1.22,0,0,1,3251.76,579.61Z" transform="translate(1704.4 -21.68)"/><path class="cls-38" d="M3253.47,592a1.15,1.15,0,1,1-1.15-1.15A1.15,1.15,0,0,1,3253.47,592Z" transform="translate(1704.4 -21.68)"/><path class="cls-33" d="M3274,601.05l-.68,29.58s-1.7,10.69-25.5,12-43.83-9.78-43.83-9.78l-2-27.42S3235.45,628,3274,601.05Z" transform="translate(1704.4 -21.68)"/><path class="cls-39" d="M3273.36,630.63l.68-29.58a71.49,71.49,0,0,1-29.11,12.33q0,1,0,2.07a101.81,101.81,0,0,0,3.45,27.1C3271.67,641.16,3273.36,630.63,3273.36,630.63Z" transform="translate(1704.4 -21.68)"/><path class="cls-36" d="M3273.25,635.18,3259,687.76l-7.82-.31.95-41S3267.13,642.72,3273.25,635.18Z" transform="translate(1704.4 -21.68)"/><path class="cls-30" d="M3222.13,644.6,3215,683.8l-5.79-1.14L3203.94,636S3214.45,643.08,3222.13,644.6Z" transform="translate(1704.4 -21.68)"/><path class="cls-30" d="M3252.32,646.63c0,1.51-14.15,47.64-14.15,47.64l-12.74-.5-3.3-49.17Z" transform="translate(1704.4 -21.68)"/><polygon class="cls-36" points="4682.87 623.21 4690.12 667.47 4696.05 667.47 4701.53 623.21 4682.87 623.21"/><path class="cls-39" d="M3001.32,608.25a63.72,63.72,0,0,1-36.92-4V635.8a64.58,64.58,0,0,0,8.42,1.31,84.39,84.39,0,0,0,28.5-2.53Z" transform="translate(1704.4 -21.68)"/><path class="cls-30" d="M3004.7,601.94a2.33,2.33,0,1,1-2.33-2.33A2.33,2.33,0,0,1,3004.7,601.94Z" transform="translate(1704.4 -21.68)"/><path class="cls-30" d="M3004,588.83a2,2,0,1,1-2-2A2,2,0,0,1,3004,588.83Z" transform="translate(1704.4 -21.68)"/><path class="cls-30" d="M3003,576.91a1.48,1.48,0,1,1-1.47-1.47A1.47,1.47,0,0,1,3003,576.91Z" transform="translate(1704.4 -21.68)"/><path class="cls-30" d="M3002,564.62a1.27,1.27,0,1,1-1.27-1.27A1.26,1.26,0,0,1,3002,564.62Z" transform="translate(1704.4 -21.68)"/><polygon class="cls-40" points="4788.07 468.66 4846.35 468.66 4835.93 545.95 4798.17 545.95 4788.07 468.66"/><path class="cls-41" d="M3094.11,567.25c-3.39-26.23-6.28-48.9-10.44-76.91,2.9,25.62,6.1,50.15,9.77,77.67,18.11-.12,23.37-.12,38.09-.38C3125.24,567.52,3100,567.25,3094.11,567.25Z" transform="translate(1704.4 -21.68)"/><polygon class="cls-42" points="4793.19 473.58 4801.4 541.83 4831.87 541.83 4841.54 473.65 4793.19 473.58"/><path class="cls-41" d="M3115.76,503.56a3.38,3.38,0,1,1-3.37-3.38A3.37,3.37,0,0,1,3115.76,503.56Z" transform="translate(1704.4 -21.68)"/><path class="cls-41" d="M3115,518.92a2.61,2.61,0,1,1-2.6-2.6A2.6,2.6,0,0,1,3115,518.92Z" transform="translate(1704.4 -21.68)"/><path class="cls-41" d="M3115,531.59a2.61,2.61,0,1,1-2.6-2.6A2.6,2.6,0,0,1,3115,531.59Z" transform="translate(1704.4 -21.68)"/><path class="cls-41" d="M3115,548.84a2.61,2.61,0,1,1-2.6-2.6A2.6,2.6,0,0,1,3115,548.84Z" transform="translate(1704.4 -21.68)"/><path class="cls-43" d="M3101.38,503.93a3,3,0,1,1-3-3A3,3,0,0,1,3101.38,503.93Z" transform="translate(1704.4 -21.68)"/><path class="cls-44" d="M3129.52,503.93a3,3,0,1,1-3-3A3,3,0,0,1,3129.52,503.93Z" transform="translate(1704.4 -21.68)"/><path class="cls-34" d="M3132.07,312.89h-34.16c-15.15,0-27.43,16.09-27.43,35.94V406A44.51,44.51,0,0,0,3115,450.53h0A44.51,44.51,0,0,0,3159.51,406V348.83C3159.51,329,3147.23,312.89,3132.07,312.89Z" transform="translate(1704.4 -21.68)"/><path class="cls-45" d="M3115,431a44.51,44.51,0,0,1-44.51-44.51V406a44.52,44.52,0,0,0,89,0V386.53A44.51,44.51,0,0,1,3115,431Z" transform="translate(1704.4 -21.68)"/><path class="cls-46" d="M3152.38,371.14c0,27.1-13.12,49.06-29.3,49.06s-29.3-22-29.3-49.06,13.12-49.05,29.3-49.05S3152.38,344.05,3152.38,371.14Z" transform="translate(1704.4 -21.68)"/><rect class="cls-47" x="4785.72" y="324.2" width="31.07" height="62.9" rx="14.82"/><path class="cls-47" d="M3149.84,359.24a13.06,13.06,0,0,1-15.68,15.68,12.92,12.92,0,0,1-9.71-9.72,13.05,13.05,0,0,1,15.68-15.67A12.92,12.92,0,0,1,3149.84,359.24Z" transform="translate(1704.4 -21.68)"/><path class="cls-48" d="M3147.57,360.56a10.56,10.56,0,1,1-8.76-8.76A10.56,10.56,0,0,1,3147.57,360.56Z" transform="translate(1704.4 -21.68)"/><path class="cls-49" d="M3144.78,359a5.67,5.67,0,0,1-6.9,6.89,5.66,5.66,0,1,1,6.9-6.89Z" transform="translate(1704.4 -21.68)"/><path class="cls-18" d="M3098.38,354.38a2.71,2.71,0,1,1-2.7-2.71A2.7,2.7,0,0,1,3098.38,354.38Z" transform="translate(1704.4 -21.68)"/><path class="cls-19" d="M3109.53,370.47a13,13,0,1,1-9.7-9.7A13,13,0,0,1,3109.53,370.47Z" transform="translate(1704.4 -21.68)"/><path class="cls-14" d="M3108.35,373.45a11.5,11.5,0,1,1-11.5-11.5A11.5,11.5,0,0,1,3108.35,373.45Z" transform="translate(1704.4 -21.68)"/><path class="cls-48" d="M3105.31,371.76a8.62,8.62,0,1,1-6.77-6.77A8.63,8.63,0,0,1,3105.31,371.76Z" transform="translate(1704.4 -21.68)"/><path class="cls-50" d="M3103.52,367.59A4.56,4.56,0,1,1,3099,363,4.56,4.56,0,0,1,3103.52,367.59Z" transform="translate(1704.4 -21.68)"/><path class="cls-51" d="M3122.11,250.46a4.21,4.21,0,1,1-4.21-4.21A4.2,4.2,0,0,1,3122.11,250.46Z" transform="translate(1704.4 -21.68)"/><path class="cls-28" d="M3057.59,665.44a67,67,0,0,0,42.64,17.94c1.18.06,1.18-1.78,0-1.84a64.89,64.89,0,0,1-41.34-17.4c-.87-.8-2.17.5-1.3,1.3Z" transform="translate(1704.4 -21.68)"/><path class="cls-28" d="M3053.83,681a84.29,84.29,0,0,0,69.36,14c1.16-.26.67-2-.49-1.77a82.46,82.46,0,0,1-67.94-13.87c-1-.69-1.88.9-.93,1.59Z" transform="translate(1704.4 -21.68)"/><polygon class="cls-14" points="2236.4 402.98 2232.94 402.98 2232.94 387.01 2217.23 381.78 2239.55 375.44 2232.94 371.78 2232.94 354.8 2236.4 354.8 2236.4 369.74 2248.57 376.47 2228.97 382.04 2236.4 384.51 2236.4 402.98"/><rect x="2229.49" y="395.28" width="10.37" height="21.64"/><path d="M537.77,370.66a7.5,7.5,0,1,1-7.5-7.5A7.5,7.5,0,0,1,537.77,370.66Z" transform="translate(1704.4 -21.68)"/><path class="cls-43" d="M535.45,369.94a5.18,5.18,0,1,1-5.18-5.18A5.18,5.18,0,0,1,535.45,369.94Z" transform="translate(1704.4 -21.68)"/><ellipse class="cls-52" cx="2236.74" cy="346.61" rx="2.08" ry="2.38"/><path class="cls-42" d="M668.26,599.37c-20.8,0-37-19-44.21-37.3l18.23-7.22-9.11,3.61,9.1-3.63c2.49,6.18,11.53,22.66,23.39,24.71,9.81,1.68,20.19-7.38,27.18-15.29l14.69,13C694.53,592,681.35,599.37,668.26,599.37Z" transform="translate(1704.4 -21.68)"/><rect class="cls-42" x="2236.05" y="589.53" width="35.8" height="71.33"/><path class="cls-53" d="M531.65,634.66a119.28,119.28,0,0,1,35.8-.68V611.2h-35.8Z" transform="translate(1704.4 -21.68)"/><path class="cls-14" d="M641.3,565.93c-25.9-2-17.5-26.65-20.39-41.37a18.43,18.43,0,0,1,7.27-18.15c4.06-2.21,8-1.06,11.59.95,13.87,7.74,20.44,20.32,23,35.45.24,1.41.62,2.79.85,4.19,1.24,7.48-.43,10.79-7.18,14C651.63,563.29,646.71,565.38,641.3,565.93Z" transform="translate(1704.4 -21.68)"/><path class="cls-54" d="M632.82,521.74c6.17,31.49,10.6,39.79,7.61,72.71-1.53,16.75-10,27.49-26.67,28.18-18.3.76-93.1,4-112.26,4.91-6.31.29-14.49-1.89-18.56-6-8.66-8.68-13.17-18.68-18.49-29.56-7.58-15.49,5.79-31.87,4.09-46.62-1.46-12.61.79-25.34-1-38,1.32-9.2,7.24-8.07,43-10.74,15.62,1.72,45.49-1.73,72.19,0,6.46.42,25.55-2,36.93,4C629.6,505.84,632.33,519.26,632.82,521.74Z" transform="translate(1704.4 -21.68)"/><path class="cls-55" d="M464.45,592c5.32,10.88,9.83,20.88,18.49,29.56,4.07,4.08,12.25,6.26,18.56,6,19.16-.89,94-4.15,112.26-4.91a35.69,35.69,0,0,0,4.13-.4c-111-9.51-135.12-84-140.09-122.91-7.45,1.17-9.52,3.12-10.24,8.11,1.77,12.62-.48,25.35,1,38C470.24,560.14,456.87,576.52,464.45,592Z" transform="translate(1704.4 -21.68)"/><path class="cls-14" d="M2244.51,406.68h21a32.85,32.85,0,0,1,32.85,32.85v26.59a0,0,0,0,1,0,0h-86.73a0,0,0,0,1,0,0V439.53A32.85,32.85,0,0,1,2244.51,406.68Z"/><path class="cls-56" d="M594,461.21a32.86,32.86,0,0,0-.64-6.47c-1.16.06-2.24.1-3.16.08-5.24-.12-9,.77-10.55,7.15-1.09,4.32-4.31,5.35-7.45,6.36-11.25,3.6-22.79,4.6-34.37,5.52-8.87.7-14.81-3.64-18.92-12.67-2.72-6-6.19-9.08-10.07-10a32.9,32.9,0,0,0-1.57,10.07v26.58H594Z" transform="translate(1704.4 -21.68)"/><path class="cls-57" d="M610.81,471.75c-1.08,3.48-1.21,25.57-25,25.57-21.1,0-46.37,1.8-64.15,1.66a26.34,26.34,0,0,1-22.5-12.88c-5.64-9.5-10.09-21.37-4.73-24.19,9.42-5.67,18.64-5.85,24.44,5,4.11,7.67,10.05,11.36,18.92,10.76,11.58-.78,23.12-1.62,34.37-4.68,3.14-.86,6.36-1.74,7.45-5.41,1.6-5.41,5.31-6.17,10.55-6.07C597.73,461.62,615,458.34,610.81,471.75Z" transform="translate(1704.4 -21.68)"/><path class="cls-58" d="M511.71,674c-.34.38-.69.75-1,1.13l-.32-.33c.38-.34.76-.68,1.13-1Z" transform="translate(1704.4 -21.68)"/><path class="cls-58" d="M510.67,675.12a6.49,6.49,0,0,1-.58.59c-.65-.5-.09-.68.26-.91Z" transform="translate(1704.4 -21.68)"/><path class="cls-42" d="M489,713.07s-.51,7.24,19.36,39.69c0,0,7.14-6.07,9.16-8.43,4.64-5.43,10.58-15.88,2-28.51C504,692.89,489,713.07,489,713.07Z" transform="translate(1704.4 -21.68)"/><path class="cls-42" d="M609.08,713.54s.51,7.25-19.37,39.7c0,0-7.13-6.07-9.15-8.44-4.64-5.43-10.58-15.87-2-28.51C594.15,693.37,609.08,713.54,609.08,713.54Z" transform="translate(1704.4 -21.68)"/><path class="cls-30" d="M529.64,755.51c.22,4.6-4.11,8.56-9.68,8.83s-10.28-3.23-10.51-7.83,4.11-8.57,9.68-8.84S529.41,750.9,529.64,755.51Z" transform="translate(1704.4 -21.68)"/><path class="cls-30" d="M567.45,755.64c0,4.6,4.71,8.52,10.49,8.75s10.43-3.33,10.41-7.93-4.7-8.53-10.48-8.75S567.44,751,567.45,755.64Z" transform="translate(1704.4 -21.68)"/><path class="cls-30" d="M584.78,790a35.34,35.34,0,1,1-37.06-33.91A35.52,35.52,0,0,1,584.78,790Z" transform="translate(1704.4 -21.68)"/><path class="cls-36" d="M580.44,783.37a24.68,24.68,0,1,1-25.88-23.68A24.8,24.8,0,0,1,580.44,783.37Z" transform="translate(1704.4 -21.68)"/><rect class="cls-59" x="733.14" y="424.19" width="2.86" height="25.61" transform="translate(3209.04 786.18) rotate(174.97)"/><path class="cls-60" d="M727.25,416.44a15.24,15.24,0,0,1,10.92-1A35.09,35.09,0,0,1,739.45,430a15.29,15.29,0,0,1-10.92,1A34.71,34.71,0,0,1,727.25,416.44Z" transform="translate(1704.4 -21.68)"/><path class="cls-60" d="M728.87,434.81a13.62,13.62,0,0,1,10.92-1,44.56,44.56,0,0,1,1.45,16.37,13.66,13.66,0,0,1-10.92,1A44.19,44.19,0,0,1,728.87,434.81Z" transform="translate(1704.4 -21.68)"/><path class="cls-61" d="M732.44,442.75c-.39-4.46.46-8.17,1.9-8.3s2.93,3.38,3.32,7.84-.45,8.17-1.89,8.3S732.84,447.21,732.44,442.75Z" transform="translate(1704.4 -21.68)"/><rect class="cls-59" x="751.99" y="429.48" width="2.86" height="25.61" transform="translate(3192.73 893) rotate(-177.68)"/><path class="cls-60" d="M749,414.78a13.12,13.12,0,0,1,11,.45,48.59,48.59,0,0,1-.69,17.17,13.09,13.09,0,0,1-11-.44A48.65,48.65,0,0,1,749,414.78Z" transform="translate(1704.4 -21.68)"/><rect class="cls-59" x="769.25" y="436.36" width="2.86" height="25.61" transform="translate(2787.37 1263.06) rotate(-140.73)"/><path class="cls-60" d="M779.75,429.29a15.24,15.24,0,0,1,8.48,6.95A34.9,34.9,0,0,1,779,447.51a15.25,15.25,0,0,1-8.48-6.94A34.83,34.83,0,0,1,779.75,429.29Z" transform="translate(1704.4 -21.68)"/><path class="cls-60" d="M768.27,443.05a14.08,14.08,0,0,1,8.76,7.16,45.55,45.55,0,0,1-10.7,13.09,14.18,14.18,0,0,1-8.77-7.17A45.54,45.54,0,0,1,768.27,443.05Z" transform="translate(1704.4 -21.68)"/><path class="cls-60" d="M748.16,436.55a11.89,11.89,0,0,1,11,.44,59.82,59.82,0,0,1-.77,19.11,11.89,11.89,0,0,1-11-.44A59.82,59.82,0,0,1,748.16,436.55Z" transform="translate(1704.4 -21.68)"/><path class="cls-61" d="M749.43,446.43c.19-4.48,1.51-8.05,3-8s2.47,3.73,2.29,8.2-1.5,8.05-2.94,8S749.25,450.9,749.43,446.43Z" transform="translate(1704.4 -21.68)"/><path class="cls-61" d="M751.56,423.49c.18-4.47,1.5-8.05,2.94-8s2.47,3.73,2.29,8.2-1.5,8.05-2.94,8S751.38,428,751.56,423.49Z" transform="translate(1704.4 -21.68)"/><path class="cls-61" d="M776.83,436.58c2.55-3.11,5.52-4.89,6.64-4s0,4.19-2.58,7.3-5.52,4.9-6.64,4S774.29,439.7,776.83,436.58Z" transform="translate(1704.4 -21.68)"/><path class="cls-61" d="M765.26,449.23c2.34-2.86,5.15-4.44,6.27-3.52s.13,4-2.21,6.84-5.15,4.43-6.27,3.52S762.92,452.09,765.26,449.23Z" transform="translate(1704.4 -21.68)"/><path class="cls-61" d="M730.75,423.53c-.5-3.93.27-7.26,1.71-7.44s3,2.86,3.49,6.79-.27,7.27-1.71,7.45S731.24,427.47,730.75,423.53Z" transform="translate(1704.4 -21.68)"/><path class="cls-42" d="M738.13,500.33c5.37,1.66,9.91,2.38,10.15,1.61l7.23-23.42-19.43-6-7.24,23.42C728.61,496.71,732.77,498.67,738.13,500.33Z" transform="translate(1704.4 -21.68)"/><path class="cls-62" d="M752.79,487.33l2.72-8.81-19.43-6-7.24,23.42c-.22.71,3.35,2.46,8.16,4h0A43.53,43.53,0,0,1,752.79,487.33Z" transform="translate(1704.4 -21.68)"/><path class="cls-42" d="M729,446.3a16.23,16.23,0,0,0-6.43,8.3c-3.11,10.09,5.95,21.85,20.24,26.26s28.4-.19,31.52-10.28a15.22,15.22,0,0,0-.81-10.13Z" transform="translate(1704.4 -21.68)"/><path class="cls-63" d="M743.54,478s17.29,2.6,19-5.38-19.9-19.92-28.44-18.32S718,471.32,743.54,478Z" transform="translate(1704.4 -21.68)"/><path class="cls-14" d="M726.11,480.24A184,184,0,0,0,755,492.49c5.35,1.75,8.22,7.75,6.44,13.74q-11.14,37.57-22.3,75.14c-1.86,6.3-8.1,10.12-13.75,8.36a265.72,265.72,0,0,1-48.62-20.64c-5.18-2.83-6.77-10-3.54-15.7q19.29-34.11,38.56-68.23C714.83,479.72,721.13,477.61,726.11,480.24Z" transform="translate(1704.4 -21.68)"/><path class="cls-42" d="M374.76,675.49c-3.49-4.4-6.83-7.56-7.46-7.06l-19.21,15.22,12.64,15.94,19.21-15.22C380.56,683.87,378.25,679.89,374.76,675.49Z" transform="translate(1704.4 -21.68)"/><path class="cls-62" d="M355.32,677.92l-7.23,5.73,12.64,15.94,19.21-15.22c.58-.47-1.38-3.92-4.45-7.94h0A43.56,43.56,0,0,1,355.32,677.92Z" transform="translate(1704.4 -21.68)"/><rect class="cls-59" x="314.98" y="687.85" width="2.86" height="25.61" transform="translate(2373.57 -4.1) rotate(51.62)"/><rect class="cls-59" x="325.24" y="700.8" width="2.86" height="25.61" transform="translate(2387.23 -7.43) rotate(51.59)"/><rect class="cls-59" x="336.99" y="715.62" width="2.86" height="25.61" transform="translate(2403.56 -10.89) rotate(51.61)"/><path class="cls-60" d="M303.31,718.13a15.28,15.28,0,0,1-6.81-8.59,34.83,34.83,0,0,1,11.41-9,15.2,15.2,0,0,1,6.81,8.59A34.83,34.83,0,0,1,303.31,718.13Z" transform="translate(1704.4 -21.68)"/><path class="cls-60" d="M325.27,745.84a15.28,15.28,0,0,1-6.81-8.59,35,35,0,0,1,11.41-9,15.22,15.22,0,0,1,6.81,8.6A34.86,34.86,0,0,1,325.27,745.84Z" transform="translate(1704.4 -21.68)"/><path class="cls-60" d="M308.69,734.86a13.08,13.08,0,0,1-6.81-8.59,48.46,48.46,0,0,1,13.47-10.68,13.13,13.13,0,0,1,6.81,8.59A48.75,48.75,0,0,1,308.69,734.86Z" transform="translate(1704.4 -21.68)"/><path class="cls-42" d="M351.69,725.19a16.19,16.19,0,0,0,10-3.2c8.28-6.56,7.46-21.38-1.83-33.11s-23.54-15.9-31.81-9.35a15.21,15.21,0,0,0-5.06,8.81Z" transform="translate(1704.4 -21.68)"/><path class="cls-60" d="M317.79,706.66a13.68,13.68,0,0,1-6.81-8.6,44,44,0,0,1,12.84-10.17,13.72,13.72,0,0,1,6.81,8.59A44,44,0,0,1,317.79,706.66Z" transform="translate(1704.4 -21.68)"/><path class="cls-60" d="M325.77,721.32a11.92,11.92,0,0,1-6.82-8.59,59.94,59.94,0,0,1,15-11.87,11.9,11.9,0,0,1,6.82,8.59A59.94,59.94,0,0,1,325.77,721.32Z" transform="translate(1704.4 -21.68)"/><path class="cls-60" d="M339.73,734.38a13.63,13.63,0,0,1-6.81-8.59,44.3,44.3,0,0,1,12.88-10.21,13.63,13.63,0,0,1,6.81,8.59A44.3,44.3,0,0,1,339.73,734.38Z" transform="translate(1704.4 -21.68)"/><path class="cls-63" d="M357.65,690.88S344.85,679,339,684.6s5.14,27.68,13.09,31.19S374.94,710.8,357.65,690.88Z" transform="translate(1704.4 -21.68)"/><path class="cls-61" d="M332.42,713.92c-3.51,2.78-7.08,4.11-8,3s1.22-4.3,4.72-7.08,7.08-4.11,8-3S335.92,711.14,332.42,713.92Z" transform="translate(1704.4 -21.68)"/><path class="cls-61" d="M313.64,727.28c-3.5,2.78-7.07,4.11-8,3s1.21-4.31,4.72-7.09,7.08-4.11,8-3S317.15,724.5,313.64,727.28Z" transform="translate(1704.4 -21.68)"/><path class="cls-61" d="M344.39,727c-3.5,2.78-7.07,4.12-8,3s1.21-4.31,4.72-7.08,7.07-4.12,8-3S347.9,724.25,344.39,727Z" transform="translate(1704.4 -21.68)"/><path class="cls-14" d="M571.7,729.29H527.27a27.16,27.16,0,0,0-27.16-27.16L505,661.65H594l4.9,40.48A27.16,27.16,0,0,0,571.7,729.29Z" transform="translate(1704.4 -21.68)"/><path class="cls-64" d="M587.25,567.59a325.56,325.56,0,0,0-61.31,2.34,10.46,10.46,0,0,1-11.72-8.5q-1.68-10.12-3.35-20.24c-.94-5.52,3.38-10.86,9.67-11.69a366.77,366.77,0,0,1,69-2.64c6.35.36,11.06,5.35,10.54,10.92l-1.8,20.44A10.45,10.45,0,0,1,587.25,567.59Z" transform="translate(1704.4 -21.68)"/><path class="cls-14" d="M583.61,564.91A327.66,327.66,0,0,0,529.37,567a9.18,9.18,0,0,1-10.23-7.59q-1.33-8.91-2.66-17.81c-.76-4.86,3.07-9.47,8.57-10.14a364.13,364.13,0,0,1,60.15-2.3c5.53.25,9.7,4.56,9.32,9.46q-.64,9-1.3,18A9.17,9.17,0,0,1,583.61,564.91Z" transform="translate(1704.4 -21.68)"/><path class="cls-65" d="M588.41,547q-10.62-.6-21.25-.54-2.37-4.4-4.85-8.76-3.15,9.79-5.93,19.65-3.25-13.2-7-26.34-3.46,7.85-6.6,15.75-11.4.87-22.72,2.48a1,1,0,1,0,.29,2q11.94-1.69,24-2.56,2.22-5.55,4.6-11.09,3.9,13.92,7.3,27.92,3.07-11.24,6.63-22.41c1,1.8,2,3.59,3,5.4q11.22-.1,22.46.53a1,1,0,1,0,.11-2Z" transform="translate(1704.4 -21.68)"/><path class="cls-66" d="M519.54,670.39c1.42-1.41,57.79-2,63.89,4.05s-1.36,27.52-27.64,30.42S503.53,686.4,519.54,670.39Z" transform="translate(1704.4 -21.68)"/><path class="cls-67" d="M542.87,448.34a5.27,5.27,0,1,1-5.27-5.28A5.27,5.27,0,0,1,542.87,448.34Z" transform="translate(1704.4 -21.68)"/><path class="cls-28" d="M541.6,448.34a4,4,0,1,1-4-4A4,4,0,0,1,541.6,448.34Z" transform="translate(1704.4 -21.68)"/><path class="cls-67" d="M571.17,448.34a5.28,5.28,0,1,1-5.27-5.28A5.27,5.27,0,0,1,571.17,448.34Z" transform="translate(1704.4 -21.68)"/><path class="cls-28" d="M569.9,448.34a4,4,0,1,1-4-4A4,4,0,0,1,569.9,448.34Z" transform="translate(1704.4 -21.68)"/><path class="cls-66" d="M729.57,493.94s-39.52,57.89-35.23,64.93,26.35,16.24,33.7,13.18,14.09-67.33,14.09-72.73S732.33,493.94,729.57,493.94Z" transform="translate(1704.4 -21.68)"/><path class="cls-66" d="M516.38,493.1s59.8-5.82,66.54-10.57,4.87-13.06,8-13.06,9.7-1.39,12.05,1-1,17.16-17.77,19.81S516.38,493.1,516.38,493.1Z" transform="translate(1704.4 -21.68)"/><path class="cls-28" d="M501.81,397.29l12.94-12.39c1.71-1.64-.89-4.24-2.6-2.6l-12.94,12.39c-1.72,1.64.89,4.24,2.6,2.6Z" transform="translate(1704.4 -21.68)"/><path class="cls-28" d="M494.36,382.14a150.24,150.24,0,0,1,18.82-4.75c2.32-.43,1.34-4-1-3.55a149,149,0,0,0-18.82,4.76c-2.24.72-1.28,4.27,1,3.54Z" transform="translate(1704.4 -21.68)"/><path class="cls-28" d="M497,346.07a85.45,85.45,0,0,1,16.86,13.5c1.65,1.7,4.25-.9,2.6-2.6a89.11,89.11,0,0,0-17.6-14.07c-2-1.24-3.88,1.94-1.86,3.17Z" transform="translate(1704.4 -21.68)"/><path class="cls-28" d="M526.11,333q.84,6.94,1.67,13.89c.28,2.32,4,2.34,3.68,0q-.84-6.94-1.67-13.89c-.28-2.32-4-2.35-3.68,0Z" transform="translate(1704.4 -21.68)"/><path class="cls-28" d="M543.08,364.93l17.2-10.56c2-1.23.17-4.41-1.85-3.17l-17.2,10.55c-2,1.24-.17,4.42,1.85,3.18Z" transform="translate(1704.4 -21.68)"/><path class="cls-28" d="M564.1,377.54c2.34.3,2.31-3.38,0-3.68a204.42,204.42,0,0,0-20.38-1.59c-2.37-.07-2.37,3.61,0,3.67A202.18,202.18,0,0,1,564.1,377.54Z" transform="translate(1704.4 -21.68)"/><path class="cls-28" d="M539.87,387.47l14.78,13c1.77,1.55,4.38-1,2.6-2.6l-14.78-13c-1.77-1.56-4.38,1-2.6,2.6Z" transform="translate(1704.4 -21.68)"/><path class="cls-42" d="M441.83,641l-11.94-15.55c19-14.59,15.34-54.16,12.32-68.17l19.17-4.16C461.93,555.66,474.57,615.85,441.83,641Z" transform="translate(1704.4 -21.68)"/><path class="cls-62" d="M441.83,641c23.21-17.82,23.61-53.26,21.68-73.28-4.34,32.44-13.29,54.78-24,70.31Z" transform="translate(1704.4 -21.68)"/><path class="cls-14" d="M472,512.84c.65,17-1.38,50.73-2.63,57.9-9.78,0-24.85-.16-34.54-2.71-6.55-1.73-7.32-3.07-6.73-9.91.86-9.78,3.92-18.79,7.38-27.79a64.27,64.27,0,0,1,17.1-24.42,14.25,14.25,0,0,1,7.14-3.49C466.05,501.3,471.77,506.42,472,512.84Z" transform="translate(1704.4 -21.68)"/><path class="cls-14" d="M386.81,688a209.86,209.86,0,0,0-20-25.2,10.78,10.78,0,0,1,.14-14.9l50.76-51.79a10.75,10.75,0,0,1,15.45.05,302.66,302.66,0,0,1,33.65,42.46,10.74,10.74,0,0,1-3.47,15.05l-62,37.59A10.78,10.78,0,0,1,386.81,688Z" transform="translate(1704.4 -21.68)"/><path class="cls-68" d="M451,616.72c-21.36,51.1-59.06,55.67-73.12,59.06q4.68,6,8.92,12.25a10.78,10.78,0,0,0,14.54,3.26l62-37.59a10.74,10.74,0,0,0,3.47-15.05Q459.42,627.33,451,616.72Z" transform="translate(1704.4 -21.68)"/><path class="cls-69" d="M-1590.84,1022.81A8.8,8.8,0,0,0-1582,1014a8.81,8.81,0,0,0-8.81-8.82,8.82,8.82,0,0,0-8.82,8.82A8.81,8.81,0,0,0-1590.84,1022.81Z" transform="translate(1704.4 -21.68)"/><path class="cls-69" d="M-1585,1021.25a8.81,8.81,0,0,1-6.11,2.45,8.82,8.82,0,0,1-8.68-7.28l-.73-.24a63,63,0,0,0,8.21,39.59,54.18,54.18,0,0,1,8.21-34.23Z" transform="translate(1704.4 -21.68)"/><path class="cls-69" d="M-1586,992.3l-8,12.47c.14.16.28.33.43.49a8.73,8.73,0,0,1,3.32-.65,8.82,8.82,0,0,1,8.82,8.82,8.72,8.72,0,0,1-1.29,4.58c.17.19.33.39.49.58,4.69-6.78,13.68-17.86,18.38-24.64A52.54,52.54,0,0,1-1586,992.3Z" transform="translate(1704.4 -21.68)"/><path class="cls-69" d="M-1573.44,986.29c-5.91,0-10.7,1.5-10.7,3.36s4.79,3.36,10.7,3.36,10.7-1.5,10.7-3.36S-1567.53,986.29-1573.44,986.29Z" transform="translate(1704.4 -21.68)"/><polygon class="cls-12" points="124.78 791.9 118.08 791.9 120.42 738.66 122.45 738.66 124.78 791.9"/><polygon class="cls-13" points="119.24 765.47 123.56 764.01 123.5 762.57 119.31 763.99 119.24 765.47"/><polygon class="cls-13" points="118.56 780.92 124.33 781.54 124.27 780.14 118.63 779.54 118.56 780.92"/><polygon class="cls-13" points="119 770.95 123.84 770.26 123.78 768.87 119.06 769.54 119 770.95"/><polygon class="cls-13" points="120.05 747.07 122.87 748.12 122.8 746.62 120.11 745.61 120.05 747.07"/><polygon class="cls-13" points="119.75 754 123.15 754.61 123.09 753.19 119.81 752.61 119.75 754"/><polygon class="cls-13" points="119.52 759.18 123.31 758.35 123.25 756.95 119.58 757.75 119.52 759.18"/><path class="cls-14" d="M-1556.74,829.51h-52.45a18.65,18.65,0,0,1,18.65-18.65h15.15a18.64,18.64,0,0,1,18.65,18.65Z" transform="translate(1704.4 -21.68)"/><path class="cls-15" d="M-1574.15,754.65a8.81,8.81,0,0,1-8.81,8.81,8.8,8.8,0,0,1-8.81-8.81,8.8,8.8,0,0,1,8.81-8.81A8.81,8.81,0,0,1-1574.15,754.65Z" transform="translate(1704.4 -21.68)"/><path class="cls-16" d="M-1582.1,760.34a8.8,8.8,0,0,1-8.81-8.81c0-.25,0-.5,0-.74a8.73,8.73,0,0,0-.9,3.86,8.8,8.8,0,0,0,8.81,8.81,8.81,8.81,0,0,0,8.77-8.07A8.8,8.8,0,0,1-1582.1,760.34Z" transform="translate(1704.4 -21.68)"/><path class="cls-14" d="M-1504.06,984.24a399.17,399.17,0,0,1-144.82,0c-7.83-35.56-10.62-70.93-7.91-106.1,1.7-22,11.89-39,24.48-40.8a397.92,397.92,0,0,1,111.68,0c12.59,1.78,22.78,18.78,24.48,40.8C-1493.45,913.31-1496.23,948.68-1504.06,984.24Z" transform="translate(1704.4 -21.68)"/><rect class="cls-33" y="846.69" width="251.42" height="54.4" rx="26.73"/><path class="cls-16" d="M-1479.71,902.51h-198a26.71,26.71,0,0,1-24.9-17.07,26.72,26.72,0,0,0-1.83,9.66V896a26.73,26.73,0,0,0,26.73,26.73h198A26.73,26.73,0,0,0-1453,896v-.94a26.72,26.72,0,0,0-1.83-9.66A26.71,26.71,0,0,1-1479.71,902.51Z" transform="translate(1704.4 -21.68)"/><path class="cls-12" d="M-1489.94,966A585,585,0,0,1-1663,966c-9.35-34.57-12.69-68.95-9.45-103.14,2-21.41,14.21-37.94,29.25-39.66a584,584,0,0,1,133.46,0c15,1.72,27.22,18.25,29.25,39.66C-1477.25,897.09-1480.59,931.47-1489.94,966Z" transform="translate(1704.4 -21.68)"/><path class="cls-70" d="M-1478.94,948.52a942,942,0,0,1-195.06,0c-10.54-27.23-14.3-54.3-10.65-81.23a36.21,36.21,0,0,1,33-31.23,939.57,939.57,0,0,1,150.42,0,36.21,36.21,0,0,1,33,31.23C-1464.65,894.22-1468.4,921.29-1478.94,948.52Z" transform="translate(1704.4 -21.68)"/><path class="cls-14" d="M-1672.57,946.64c-1.77-4.7-3.43-9.45-4.89-14.27-6.36-21.33-12-61.29-.89-79.58a36.33,36.33,0,0,1,26.67-16.73,36.57,36.57,0,0,0-34.17,31.46c-6.6,44.23,9.11,77.91,10.42,82.85,65.91,6.24,130.67,7.63,196.49-1.85C-1486.15,948.71-1569,957-1672.57,946.64Z" transform="translate(1704.4 -21.68)"/><rect class="cls-14" x="62.65" y="837.83" width="134.06" height="57.12"/><path class="cls-33" d="M-1591.19,889.7a22.44,22.44,0,0,1-22.44,22.43,22.44,22.44,0,0,1-22.44-22.43,22.44,22.44,0,0,1,22.44-22.44A22.44,22.44,0,0,1-1591.19,889.7Z" transform="translate(1704.4 -21.68)"/><path class="cls-71" d="M-1595.29,889.7A18.34,18.34,0,0,1-1613.63,908,18.34,18.34,0,0,1-1632,889.7a18.34,18.34,0,0,1,18.34-18.34A18.34,18.34,0,0,1-1595.29,889.7Z" transform="translate(1704.4 -21.68)"/><path class="cls-72" d="M-1613.63,873.81s-3.38,16.85-1.69,18.53,16.39-2,17.16-4.27S-1600.79,871-1613.63,873.81Z" transform="translate(1704.4 -21.68)"/><path class="cls-73" d="M-1642.44,858.82v58.5H-1507v-58.5Zm134,57.12h-132.67V860.2h132.67Z" transform="translate(1704.4 -21.68)"/><path class="cls-12" d="M-1650.07,1017.83a11,11,0,0,1-11,10.95,11,11,0,0,1-11-10.95,11,11,0,0,1,11-11A11,11,0,0,1-1650.07,1017.83Z" transform="translate(1704.4 -21.68)"/><path class="cls-12" d="M-1653.82,1026.83a10.88,10.88,0,0,1-7.58,3.06,11,11,0,0,1-10.79-9.06c-.3-.1-.61-.19-.91-.3a78.3,78.3,0,0,0,10.2,49.2,67.27,67.27,0,0,1,10.2-42.53Z" transform="translate(1704.4 -21.68)"/><path class="cls-14" d="M-1652.7,1017.83a8.33,8.33,0,0,1-8.32,8.32,8.33,8.33,0,0,1-8.33-8.32,8.33,8.33,0,0,1,8.33-8.33A8.33,8.33,0,0,1-1652.7,1017.83Z" transform="translate(1704.4 -21.68)"/><path class="cls-12" d="M-1627.59,992.9c-5.84,8.43-17,22.21-22.85,30.64l-.6-.73a10.81,10.81,0,0,0,1.6-5.69,11,11,0,0,0-11-11,10.71,10.71,0,0,0-4.13.81l-.53-.61q5-7.75,10-15.5A65,65,0,0,0-1627.59,992.9Z" transform="translate(1704.4 -21.68)"/><path class="cls-14" d="M-1652.7,1027.2l-1.12-.37a10.88,10.88,0,0,1-7.58,3.06,11.55,11.55,0,0,1-5.93-1.74c-.05.21-.09.43-.12.63-2.31,12,4.55,41,4.55,41A67.27,67.27,0,0,1-1652.7,1027.2Z" transform="translate(1704.4 -21.68)"/><path class="cls-14" d="M-1640.52,993.4c-3.88,4-8.92,9.25-13.6,14.73a11,11,0,0,1,4.68,9,10.81,10.81,0,0,1-1.6,5.69l.6.73c5.83-8.43,17-22.21,22.85-30.64A68.31,68.31,0,0,1-1640.52,993.4Z" transform="translate(1704.4 -21.68)"/><path class="cls-12" d="M-1626.1,987.57c-1,2.09-6,4.17-13.3,4.17s-13.3-1.87-13.3-4.17,6-11.56,13.3-11.56S-1622,978.77-1626.1,987.57Z" transform="translate(1704.4 -21.68)"/><path class="cls-12" d="M-1489.24,1013.34a11,11,0,0,0,13.73,7.19,11,11,0,0,0,7.19-13.73,11,11,0,0,0-13.73-7.19A11,11,0,0,0-1489.24,1013.34Z" transform="translate(1704.4 -21.68)"/><path class="cls-12" d="M-1483,1020.82a10.89,10.89,0,0,0,8.15.65,11,11,0,0,0,7.59-11.87l.78-.55a78.33,78.33,0,0,1,5,50,67.32,67.32,0,0,0-22.44-37.55Z" transform="translate(1704.4 -21.68)"/><path class="cls-14" d="M-1486.72,1012.55a8.31,8.31,0,0,0,10.43,5.46,8.32,8.32,0,0,0,5.46-10.43,8.33,8.33,0,0,0-10.43-5.46A8.32,8.32,0,0,0-1486.72,1012.55Z" transform="translate(1704.4 -21.68)"/><path class="cls-12" d="M-1518.13,996.27c8.09,6.3,22.87,16.11,31,22.41.11-.29.23-.58.35-.87a11,11,0,0,1-3.23-5,11,11,0,0,1,7.19-13.73,10.76,10.76,0,0,1,4.19-.46l.32-.74-14.18-11.8A65.09,65.09,0,0,1-1518.13,996.27Z" transform="translate(1704.4 -21.68)"/><path class="cls-14" d="M-1467.82,1022.81a27,27,0,0,0-2.38-4.19,11.61,11.61,0,0,1-4.61,2.85,10.89,10.89,0,0,1-8.15-.65l-1,.68a67.32,67.32,0,0,1,22.44,37.55A76.22,76.22,0,0,0-1467.82,1022.81Z" transform="translate(1704.4 -21.68)"/><path class="cls-14" d="M-1486.81,1017.81c-.12.29-.25.58-.36.87-8.09-6.3-22.87-16.12-30.95-22.41A68.31,68.31,0,0,0-1501,991c4.33,3,10.2,7,14.27,10.32a11,11,0,0,0-3.3,11.58A10.87,10.87,0,0,0-1486.81,1017.81Z" transform="translate(1704.4 -21.68)"/><path class="cls-12" d="M-1521.15,991.62c2.11.93,6.93,2.21,13.94,0s12.14-5.76,11.45-8-18.31-9.87-25.33-7.67S-1529.38,988-1521.15,991.62Z" transform="translate(1704.4 -21.68)"/><path class="cls-14" d="M-1567.3,933.25a8,8,0,0,1-8,8,8,8,0,0,1-8-8,8,8,0,0,1,8-8A8,8,0,0,1-1567.3,933.25Z" transform="translate(1704.4 -21.68)"/><path class="cls-74" d="M-1568.36,932.46a4.74,4.74,0,0,1-4.74,4.74,4.75,4.75,0,0,1-4.75-4.74,4.75,4.75,0,0,1,4.75-4.74A4.74,4.74,0,0,1-1568.36,932.46Z" transform="translate(1704.4 -21.68)"/><path class="cls-14" d="M-1605.68,932.46a8,8,0,0,1-8,7.95,8,8,0,0,1-7.95-7.95,8,8,0,0,1,7.95-8A8,8,0,0,1-1605.68,932.46Z" transform="translate(1704.4 -21.68)"/><path class="cls-74" d="M-1606.74,931.67a4.75,4.75,0,0,1-4.74,4.75,4.75,4.75,0,0,1-4.74-4.75,4.74,4.74,0,0,1,4.74-4.74A4.74,4.74,0,0,1-1606.74,931.67Z" transform="translate(1704.4 -21.68)"/><path class="cls-14" d="M-1525.75,933.25a8,8,0,0,1-8,8,8,8,0,0,1-8-8,8,8,0,0,1,8-8A8,8,0,0,1-1525.75,933.25Z" transform="translate(1704.4 -21.68)"/><path class="cls-74" d="M-1526.81,932.46a4.74,4.74,0,0,1-4.74,4.74,4.75,4.75,0,0,1-4.75-4.74,4.75,4.75,0,0,1,4.75-4.74A4.74,4.74,0,0,1-1526.81,932.46Z" transform="translate(1704.4 -21.68)"/><path class="cls-28" d="M-1687.7,993.69a46.23,46.23,0,0,0-5.14,50c.53,1.06,2.11.13,1.58-.93A44.27,44.27,0,0,1-1686.4,995c.72-.92-.57-2.22-1.3-1.3Z" transform="translate(1704.4 -21.68)"/><path class="cls-28" d="M-1458.43,991.2a71.82,71.82,0,0,1,6.6,63.47c-.4,1.12,1.38,1.6,1.77.49a73.68,73.68,0,0,0-6.79-64.88c-.62-1-2.21-.08-1.58.92Z" transform="translate(1704.4 -21.68)"/><path class="cls-14" d="M572.73,1715.29h-62c0-9.71-17-17.57-37.88-17.57l6.84-26.19H603.77l6.84,26.19C589.69,1697.72,572.73,1705.58,572.73,1715.29Z" transform="translate(1704.4 -21.68)"/><path class="cls-75" d="M624.88,1705.1s-20.83-13-42.57,1.78c-5.33,3.63-6.65,7-5.9,9.9l-70.64,0c.94-3-.26-6.47-5.8-10.25-21.75-14.83-42.58-1.78-42.58-1.78s-.71,4.69,27,25.68l113.45.31C625.6,1709.79,624.88,1705.1,624.88,1705.1Z" transform="translate(1704.4 -21.68)"/><polygon class="cls-76" points="2317.86 1667.67 2170.71 1667.67 2152.72 1615.86 2331.85 1615.86 2317.86 1667.67"/><path class="cls-77" d="M627.46,1569.27c0,46-40.11,83.26-89.57,83.26s-89.57-37.27-89.57-83.26,40.1-83.26,89.57-83.26S627.46,1523.28,627.46,1569.27Z" transform="translate(1704.4 -21.68)"/><path class="cls-78" d="M477.77,1569.27c0-41.32,32.39-75.59,74.84-82.12a96.3,96.3,0,0,0-14.72-1.14c-49.47,0-89.57,37.27-89.57,83.26s40.1,83.26,89.57,83.26a96.3,96.3,0,0,0,14.72-1.14C510.16,1644.86,477.77,1610.59,477.77,1569.27Z" transform="translate(1704.4 -21.68)"/><path class="cls-79" d="M537.89,1486c-49.47,0-89.57,37.27-89.57,83.26s40.1,83.26,89.57,83.26,89.57-37.28,89.57-83.26S587.35,1486,537.89,1486Zm0,161c-46.36,0-84.08-34.89-84.08-77.77s37.72-77.77,84.08-77.77S622,1526.39,622,1569.27,584.25,1647,537.89,1647Z" transform="translate(1704.4 -21.68)"/><polygon class="cls-76" points="2159.92 1563.26 2139.66 1560.89 2133.8 1580.23 2100.15 1580.97 2102.14 1587.6 2132.56 1589.56 2145.02 1619.89 2159.43 1619.89 2159.43 1591.29 2159.43 1587.03 2159.92 1587.14 2159.92 1563.26"/><path class="cls-76" d="M409.59,1604.13A8.56,8.56,0,1,1,401,1596,8.37,8.37,0,0,1,409.59,1604.13Z" transform="translate(1704.4 -21.68)"/><polygon class="cls-76" points="2328.87 1563.26 2349.13 1560.89 2354.99 1580.23 2388.64 1580.97 2386.65 1587.6 2356.23 1589.56 2343.77 1619.89 2329.36 1619.89 2329.36 1591.29 2329.36 1587.03 2328.87 1587.14 2328.87 1563.26"/><ellipse class="cls-76" cx="2383.35" cy="1582.45" rx="8.55" ry="8.18"/><path class="cls-80" d="M635.38,1651.78a1637.11,1637.11,0,0,1-188.49,0,184.83,184.83,0,0,1,0-90.74,1632.6,1632.6,0,0,1,188.49,0A184.83,184.83,0,0,1,635.38,1651.78Z" transform="translate(1704.4 -21.68)"/><path d="M448.35,1650c-7.61-30.5-7.68-59-1.46-89-10.1,34.7-7.82,62.59-1.47,92.47,86.93,4.91,136,3,190-1.73C635.38,1651.78,509.19,1652.84,448.35,1650Z" transform="translate(1704.4 -21.68)"/><path class="cls-81" d="M611.73,1666.61a735,735,0,0,1-141.18,0,381,381,0,0,1,0-113.33,735,735,0,0,1,141.18,0A381.66,381.66,0,0,1,611.73,1666.61Z" transform="translate(1704.4 -21.68)"/><path class="cls-82" d="M489.53,1551.7a696.29,696.29,0,0,0,.44,116.51,734.35,734.35,0,0,0,102.77,0,695.23,695.23,0,0,0-.44-116.51A734.35,734.35,0,0,0,489.53,1551.7Z" transform="translate(1704.4 -21.68)"/><path class="cls-75" d="M516.59,1550.3a936.69,936.69,0,0,0,.47,119.3,735.77,735.77,0,0,0,76.29-1.46,934.35,934.35,0,0,0-.45-116.42A733.36,733.36,0,0,0,516.59,1550.3Z" transform="translate(1704.4 -21.68)"/><rect class="cls-14" x="514.55" y="1535.95" width="51.7" height="103.59" rx="24.54" transform="translate(3832.55 1025.67) rotate(90)"/><path class="cls-18" d="M578.2,1590.3a4.51,4.51,0,1,1,4.46-4.51A4.48,4.48,0,0,1,578.2,1590.3Z" transform="translate(1704.4 -21.68)"/><path class="cls-19" d="M546.8,1609.39a21.64,21.64,0,1,1,21.41-21.64A21.53,21.53,0,0,1,546.8,1609.39Z" transform="translate(1704.4 -21.68)"/><path class="cls-14" d="M546.8,1606.88a19.14,19.14,0,1,1,18.94-19.13A19,19,0,0,1,546.8,1606.88Z" transform="translate(1704.4 -21.68)"/><path class="cls-20" d="M546.8,1602.09A14.34,14.34,0,1,1,561,1587.75,14.26,14.26,0,0,1,546.8,1602.09Z" transform="translate(1704.4 -21.68)"/><ellipse class="cls-21" cx="2260.85" cy="1569.57" rx="7.51" ry="7.59"/><path class="cls-79" d="M588,1751.72H495.17L484.41,1741v-10.49H598.76V1741Z" transform="translate(1704.4 -21.68)"/><polygon class="cls-14" points="2188.91 1718.06 2188.81 1718.05 2188.81 1719.28 2190.04 1720.51 2301.93 1720.51 2303.16 1719.28 2303.16 1718.06 2188.91 1718.06"/><path class="cls-28" d="M503,1760.83c-1.18,31.17-2.61,61.71-19.3,88-9.94,15.64-21.82,22.77-21.57,22.56-4.14,2.77-8.26-3.67-3.9-6.23a69.46,69.46,0,0,0,20.91-19.43C496.84,1821.31,500,1790.88,503,1760.83Z" transform="translate(1704.4 -21.68)"/><path class="cls-28" d="M525.33,1764.83c-8.64,104.07,9.11,129.71-1.14,130.91a3.68,3.68,0,0,1-4.1-3.44A643.82,643.82,0,0,1,525.33,1764.83Z" transform="translate(1704.4 -21.68)"/><path class="cls-28" d="M555.05,1766c-5.45,38.18,1.78,80.85,23.63,113,2.82,4.14-3.62,8.27-6.2,4C552.26,1848.8,547,1805.09,555.05,1766Z" transform="translate(1704.4 -21.68)"/><path class="cls-28" d="M582,1761.19c13.32,108.4,66.75,96.4,62.09,108.28a3.68,3.68,0,0,1-5,2C597.13,1852.16,585,1807.11,582,1761.19Z" transform="translate(1704.4 -21.68)"/><polygon class="cls-14" points="5655.3 1649.2 5643.59 1606.18 5667.32 1580.34 5672.74 1585.32 5651.75 1608.17 5662.4 1647.26 5655.3 1649.2"/><polygon class="cls-14" points="5712.46 1652.96 5705.42 1650.85 5718.84 1605.99 5697.13 1586.63 5702.03 1581.14 5727.23 1603.62 5712.46 1652.96"/><path class="cls-83" d="M3999,1682.77h-37.23a11.46,11.46,0,0,1-11.46-11.46h0a11.47,11.47,0,0,1,11.46-11.46H3999a11.46,11.46,0,0,1,11.45,11.46h0A11.45,11.45,0,0,1,3999,1682.77Z" transform="translate(1704.4 -21.68)"/><polygon class="cls-30" points="5666.54 1526.95 5677.15 1582.52 5693.23 1582.52 5702.05 1525.15 5666.54 1526.95"/><polygon class="cls-14" points="5705.88 1525.15 5662.7 1526.95 5665.02 1536.91 5703.68 1536.91 5705.88 1525.15"/><polygon class="cls-14" points="5667.58 1547.94 5701.62 1547.94 5703.23 1539.36 5665.59 1539.36 5667.58 1547.94"/><polygon class="cls-14" points="5668.43 1551.62 5670.9 1562.24 5698.95 1562.24 5700.94 1551.62 5668.43 1551.62"/><polygon class="cls-14" points="5671.75 1565.92 5675.6 1582.52 5695.17 1582.52 5698.27 1565.92 5671.75 1565.92"/><polygon points="5721.07 1330.21 5721.07 1328.39 5729.49 1328.39 5732.24 1320.11 5735.59 1331.88 5737.51 1328.39 5746.46 1328.39 5746.46 1330.21 5738.59 1330.21 5735.04 1336.63 5732.1 1326.3 5730.8 1330.21 5721.07 1330.21"/><path d="M4046,1354.93a4,4,0,1,1,3.95-4A4,4,0,0,1,4046,1354.93Z" transform="translate(1704.4 -21.68)"/><path class="cls-29" d="M4014,1360.06c-2.61,0-4.73-4.48-4.73-10s2.12-10,4.73-10,4.73,4.48,4.73,10S4016.62,1360.06,4014,1360.06Z" transform="translate(1704.4 -21.68)"/><polygon points="5642.99 1330.16 5643.02 1328.34 5634.61 1328.17 5632.02 1319.85 5628.44 1331.54 5626.59 1328.02 5617.64 1327.84 5617.61 1329.67 5625.48 1329.82 5628.9 1336.3 5632.03 1326.04 5633.26 1329.97 5642.99 1330.16"/><path d="M3909.2,1354.31a4,4,0,1,0-3.88-4A4,4,0,0,0,3909.2,1354.31Z" transform="translate(1704.4 -21.68)"/><path class="cls-29" d="M3941.1,1360.06c2.61,0,4.82-4.39,4.93-9.92s-1.93-10.05-4.54-10.1-4.82,4.39-4.92,9.92S3938.49,1360,3941.1,1360.06Z" transform="translate(1704.4 -21.68)"/><path class="cls-84" d="M3861.66,1621.47l0,.06c-1.2,1.82-4.24,1.93-6.84.36a53.31,53.31,0,0,1-6.7-4.82,9.87,9.87,0,0,1,4-6.18,52.63,52.63,0,0,1,7.11,4.19C3861.71,1616.82,3862.84,1619.64,3861.66,1621.47Z" transform="translate(1704.4 -21.68)"/><path class="cls-85" d="M3860.73,1574.13c0,1.4-1.85,2.54-4.14,2.54s-4.14-1.14-4.14-2.54,1.85-2.55,4.14-2.55S3860.73,1572.72,3860.73,1574.13Z" transform="translate(1704.4 -21.68)"/><path class="cls-85" d="M3886.29,1573c.67,1,2.52.89,4.13-.22s2.35-2.8,1.67-3.78-2.53-.89-4.13.22S3885.61,1572,3886.29,1573Z" transform="translate(1704.4 -21.68)"/><path class="cls-85" d="M3846.54,1570.63c0,1.41-1.49,2.54-3.33,2.54s-3.33-1.13-3.33-2.54,1.49-2.54,3.33-2.54S3846.54,1569.23,3846.54,1570.63Z" transform="translate(1704.4 -21.68)"/><path class="cls-30" d="M3891.9,1436.43s-7.59,12.19-10.45,23.82a135.84,135.84,0,0,0-3.19,25.13l3.19,3.12s10.56-29.7,18.05-31.5S3891.9,1436.43,3891.9,1436.43Z" transform="translate(1704.4 -21.68)"/><polygon class="cls-84" points="5600.03 1409.81 5592.89 1416.04 5617.16 1471.08 5624.25 1467.3 5600.03 1409.81"/><polygon class="cls-86" points="5607.88 1394.85 5596.94 1407.31 5617.16 1471.08 5625.72 1466.51 5607.88 1394.85"/><path class="cls-87" d="M3875.23,1474.36l-4,7.79s-23.55,8.1-25.93,60.13c0,0,10.23,23,50.67,6.85,0,0,1.35-44.55-8.33-57.22l3.1-5.09S3882.85,1474.36,3875.23,1474.36Z" transform="translate(1704.4 -21.68)"/><path class="cls-88" d="M3868.63,1538.85c-4.07-25.09,10.38-52.15,10.38-52.15l4.54-8.33c-2.51-2.22-5.43-4-8.32-4l-4,7.79s-23.55,8.1-25.93,60.13c0,0,5.93,13.35,26.59,12.59C3870.82,1550.84,3869.72,1545.62,3868.63,1538.85Z" transform="translate(1704.4 -21.68)"/><path class="cls-84" d="M3840.5,1538.85v24.3s1.19,8.83,20.7,10.65,36.16-6.6,36.16-6.6l2.14-22.43S3871.66,1562.22,3840.5,1538.85Z" transform="translate(1704.4 -21.68)"/><path class="cls-89" d="M3884.6,1550.1a52.35,52.35,0,0,1-30.32-3.27v25.89a53.8,53.8,0,0,0,6.92,1.08,69.41,69.41,0,0,0,23.4-2.08Z" transform="translate(1704.4 -21.68)"/><path class="cls-90" d="M3842.8,1566.11c-2.73-3.07-1.2-2.34-2.3-27.26-.33,7.49-.49,17.32-.6,24.35,2.86,11.81,29.47,15,50.38,7.11a58.67,58.67,0,0,0,7.08-3.11C3878.12,1575.29,3851.14,1575.74,3842.8,1566.11Z" transform="translate(1704.4 -21.68)"/><path class="cls-30" d="M3887.37,1544.92a1.91,1.91,0,1,1-1.91-1.91A1.91,1.91,0,0,1,3887.37,1544.92Z" transform="translate(1704.4 -21.68)"/><path class="cls-30" d="M3886.78,1534.16a1.62,1.62,0,1,1-1.62-1.62A1.61,1.61,0,0,1,3886.78,1534.16Z" transform="translate(1704.4 -21.68)"/><path class="cls-30" d="M3886,1524.37a1.21,1.21,0,1,1-1.21-1.21A1.21,1.21,0,0,1,3886,1524.37Z" transform="translate(1704.4 -21.68)"/><path class="cls-30" d="M3885.16,1514.27a1,1,0,0,1-2.08,0,1,1,0,1,1,2.08,0Z" transform="translate(1704.4 -21.68)"/><path class="cls-84" d="M3897.8,1587.48a14.58,14.58,0,0,0,7.31-6.65,58,58,0,0,0-11.47-10.92,14.48,14.48,0,0,0-7.3,6.65A58.27,58.27,0,0,0,3897.8,1587.48Z" transform="translate(1704.4 -21.68)"/><polygon class="cls-14" points="5588.99 1421.92 5601.05 1442.56 5599.19 1444.03 5581.82 1427.61 5588.99 1421.92"/><polygon class="cls-14" points="5580.96 1429.78 5597.69 1446.07 5596.18 1448.14 5575.56 1437.17 5580.96 1429.78"/><polygon class="cls-14" points="5573.87 1442.6 5593.95 1449.03 5593.22 1452.9 5572.18 1451.6 5573.87 1442.6"/><path class="cls-85" d="M3899,1587.43c1.11,1.61,3.77,1.69,5.95.19s3.05-4,1.94-5.63-3.77-1.69-5.95-.19S3897.87,1585.82,3899,1587.43Z" transform="translate(1704.4 -21.68)"/><path class="cls-85" d="M3901.94,1605.75c1.11,1.61,3.76,1.73,5.91.24s3-4,1.87-5.61-3.76-1.72-5.91-.25S3900.82,1604.13,3901.94,1605.75Z" transform="translate(1704.4 -21.68)"/><path class="cls-84" d="M3897.66,1617.7l.07,0c1.92.55,4.62-1.2,6.13-3.86a57.33,57.33,0,0,0,3.51-7.4,8.39,8.39,0,0,0-6.49-1.91,60.83,60.83,0,0,0-4.18,7.2C3895.37,1614.47,3895.75,1617.13,3897.66,1617.7Z" transform="translate(1704.4 -21.68)"/><path class="cls-84" d="M3901.17,1604.18a13,13,0,0,0,8.89-3.08,63.55,63.55,0,0,0-3.2-15.84,13,13,0,0,0-8.9,3.09A64,64,0,0,0,3901.17,1604.18Z" transform="translate(1704.4 -21.68)"/><path class="cls-85" d="M3851.69,1612.76a4.47,4.47,0,1,1-4.46-4.18A4.32,4.32,0,0,1,3851.69,1612.76Z" transform="translate(1704.4 -21.68)"/><path class="cls-85" d="M3844.41,1593.07a4.54,4.54,0,1,1-4.53-4.16A4.35,4.35,0,0,1,3844.41,1593.07Z" transform="translate(1704.4 -21.68)"/><path class="cls-84" d="M3845,1592.26a10.59,10.59,0,0,1-8.94-1.5,85.69,85.69,0,0,1,3-18.2,10.61,10.61,0,0,1,8.94,1.49A85.15,85.15,0,0,1,3845,1592.26Z" transform="translate(1704.4 -21.68)"/><path class="cls-84" d="M3851.69,1610.73a10.58,10.58,0,0,1-8.57,3,85.59,85.59,0,0,1-6-17.46,10.68,10.68,0,0,1,8.58-3A86.38,86.38,0,0,1,3851.69,1610.73Z" transform="translate(1704.4 -21.68)"/><path class="cls-89" d="M3850.68,1608.65c-1.72-6-4.27-10.46-5.7-10s-1.2,5.57.51,11.53c.34,1.18.71,2.3,1.1,3.34a10.51,10.51,0,0,0,4.71-2.41C3851.12,1610.28,3850.92,1609.48,3850.68,1608.65Z" transform="translate(1704.4 -21.68)"/><path class="cls-85" d="M3858.08,1596.56c0,2.3-2.53,4.16-5.63,4.16s-5.63-1.86-5.63-4.16,2.52-4.15,5.63-4.15S3858.08,1594.27,3858.08,1596.56Z" transform="translate(1704.4 -21.68)"/><path class="cls-84" d="M3858.87,1595.75a16,16,0,0,1-11.13-1.49,70.58,70.58,0,0,1,3.78-18.21,16,16,0,0,1,11.13,1.49A71,71,0,0,1,3858.87,1595.75Z" transform="translate(1704.4 -21.68)"/><path class="cls-91" d="M3867.14,1614.23a15.36,15.36,0,0,1-10.67,3,75,75,0,0,1-7.46-17.46,15.26,15.26,0,0,1,10.67-3A74.81,74.81,0,0,1,3867.14,1614.23Z" transform="translate(1704.4 -21.68)"/><path class="cls-89" d="M3864.48,1608.65c-2.14-6-5.31-10.46-7.1-10s-1.5,5.57.64,11.53c.42,1.18.89,2.3,1.37,3.34a14.47,14.47,0,0,0,5.86-2.41C3865,1610.28,3864.77,1609.48,3864.48,1608.65Z" transform="translate(1704.4 -21.68)"/><path class="cls-85" d="M3867.14,1616.26c0,2.3-2.49,4.18-5.55,4.18s-5.55-1.88-5.55-4.18,2.48-4.18,5.55-4.18S3867.14,1614,3867.14,1616.26Z" transform="translate(1704.4 -21.68)"/><path class="cls-91" d="M3879.54,1625l-.05.06c-1.49,1.82-5.27,1.93-8.5.35a67,67,0,0,1-8.34-4.81,10,10,0,0,1,5-6.18,71.82,71.82,0,0,1,8.85,4.18C3879.61,1620.31,3881,1623.14,3879.54,1625Z" transform="translate(1704.4 -21.68)"/><path class="cls-85" d="M4136.22,1549.49c.36,1.35,2.09,2.07,3.87,1.6s2.92-2,2.56-3.32-2.1-2.07-3.87-1.6S4135.85,1548.13,4136.22,1549.49Z" transform="translate(1704.4 -21.68)"/><path class="cls-84" d="M4143.24,1570a10.63,10.63,0,0,0,8.25-3.75,85.72,85.72,0,0,0-7.63-16.81,10.63,10.63,0,0,0-8.25,3.75A85.72,85.72,0,0,0,4143.24,1570Z" transform="translate(1704.4 -21.68)"/><path class="cls-84" d="M4141.58,1589.56a10.58,10.58,0,0,0,9,.64,86.06,86.06,0,0,0,1.29-18.41,10.59,10.59,0,0,0-9-.64A85.42,85.42,0,0,0,4141.58,1589.56Z" transform="translate(1704.4 -21.68)"/><path class="cls-89" d="M4142,1587.29c.12-6.2,1.42-11.21,2.92-11.18s2.6,5.08,2.48,11.29c0,1.22-.1,2.4-.21,3.51a10.73,10.73,0,0,1-5.17-1.12C4142,1589,4142,1588.15,4142,1587.29Z" transform="translate(1704.4 -21.68)"/><path class="cls-85" d="M4142.1,1591.52a4.47,4.47,0,1,0,3.23-5.19A4.32,4.32,0,0,0,4142.1,1591.52Z" transform="translate(1704.4 -21.68)"/><path class="cls-84" d="M4134.71,1602.51l.06,0c1.62,1.45,4.59.77,6.69-1.43a51.65,51.65,0,0,0,5.23-6.37,9.77,9.77,0,0,0-5.48-4.93,52.6,52.6,0,0,0-5.79,5.87C4133.46,1598,4133.1,1601,4134.71,1602.51Z" transform="translate(1704.4 -21.68)"/><path class="cls-85" d="M4123.41,1556.52c.36,1.36,2.45,2,4.66,1.39s3.71-2.17,3.34-3.52-2.44-2-4.66-1.39S4123.05,1555.17,4123.41,1556.52Z" transform="translate(1704.4 -21.68)"/><path class="cls-85" d="M4098.42,1562c-.4,1.13-2.21,1.51-4,.86s-3-2.1-2.6-3.23,2.22-1.51,4-.85S4098.83,1560.89,4098.42,1562Z" transform="translate(1704.4 -21.68)"/><path class="cls-85" d="M4144.06,1570.62a4.54,4.54,0,1,0,3.3-5.18A4.35,4.35,0,0,0,4144.06,1570.62Z" transform="translate(1704.4 -21.68)"/><path class="cls-30" d="M4057.8,1431.52s10.47,9.81,16.24,20.31a136.4,136.4,0,0,1,9.55,23.47l-2.27,3.83s-17.86-26-25.56-25.78S4057.8,1431.52,4057.8,1431.52Z" transform="translate(1704.4 -21.68)"/><polygon class="cls-84" points="5757.32 1406.02 5765.82 1410.2 5756.56 1469.64 5748.74 1467.81 5757.32 1406.02"/><polygon class="cls-86" points="5745.88 1393.59 5759.66 1402.81 5756.56 1469.64 5747.11 1467.43 5745.88 1393.59"/><path class="cls-87" d="M4083.68,1463.86l5.91,6.48s24.85,1.76,40.56,51.42c0,0-3.94,24.92-47.19,19.69,0,0-12.79-42.71-6.71-57.44l-4.3-4.12S4076.32,1465.82,4083.68,1463.86Z" transform="translate(1704.4 -21.68)"/><path class="cls-88" d="M4086.4,1541.8q1.44.14,2.82.21h.22c2,.11,3.84.16,5.62.14h0c-1.07-5.67-4.27-21.06-9.68-34.56-4.9-12.21,1.18-28.73,4.23-37.25h0l-5.91-6.48h0a8.82,8.82,0,0,0-3.22,1.71c-.4.32-.79.67-1.17,1s-.73.78-1.08,1.2-.68.85-1,1.3a43.44,43.44,0,0,0-5.26,10.78l4.3,4.12c-3.71,9-.4,28.34,2.74,42.1.73,3.18,1.44,6.05,2.06,8.43.14.53.27,1,.4,1.51.89,3.35,1.51,5.4,1.51,5.4,1,.12,2,.22,3,.31Z" transform="translate(1704.4 -21.68)"/><path class="cls-84" d="M4133.86,1517.22l6.26,23.49s1.13,8.83-17.25,15.62-36.63,2.94-36.63,2.94l-7.86-21.12S4109.77,1547.84,4133.86,1517.22Z" transform="translate(1704.4 -21.68)"/><path class="cls-89" d="M4094.15,1539.46a52.32,52.32,0,0,0,28.45-11l6.67,25a52.92,52.92,0,0,1-6.4,2.83,69.31,69.31,0,0,1-23.15,4Z" transform="translate(1704.4 -21.68)"/><path class="cls-90" d="M4138.67,1544.15c1.84-3.66.55-2.57-4.81-26.93,2.25,7.16,5,16.61,6.86,23.37.28,12.16-24.6,22.13-46.84,19.86a55.93,55.93,0,0,1-7.64-1.18C4106.9,1562.13,4133.09,1555.61,4138.67,1544.15Z" transform="translate(1704.4 -21.68)"/><path class="cls-30" d="M4090.14,1535.17a1.91,1.91,0,1,0,1.35-2.34A1.9,1.9,0,0,0,4090.14,1535.17Z" transform="translate(1704.4 -21.68)"/><path class="cls-30" d="M4087.94,1524.62a1.61,1.61,0,0,0,3.12-.83,1.61,1.61,0,1,0-3.12.83Z" transform="translate(1704.4 -21.68)"/><path class="cls-30" d="M4086.2,1515a1.21,1.21,0,0,0,1.48.86,1.21,1.21,0,1,0-.63-2.34A1.2,1.2,0,0,0,4086.2,1515Z" transform="translate(1704.4 -21.68)"/><path class="cls-30" d="M4084.37,1505a1,1,0,1,0,.74-1.27A1,1,0,0,0,4084.37,1505Z" transform="translate(1704.4 -21.68)"/><path class="cls-85" d="M4131.76,1577.52c.59,2.21,3.5,3.36,6.5,2.56s5-3.25,4.37-5.46-3.5-3.37-6.51-2.57S4131.16,1575.3,4131.76,1577.52Z" transform="translate(1704.4 -21.68)"/><path class="cls-84" d="M4130.79,1576.94a16,16,0,0,0,10.36-4.31,70.38,70.38,0,0,0-8.35-16.62,16,16,0,0,0-10.37,4.31A70.42,70.42,0,0,0,4130.79,1576.94Z" transform="translate(1704.4 -21.68)"/><path class="cls-91" d="M4127.55,1596.92a15.29,15.29,0,0,0,11.07.1,75.15,75.15,0,0,0,2.71-18.79,15.34,15.34,0,0,0-11.07-.1A75.15,75.15,0,0,0,4127.55,1596.92Z" transform="translate(1704.4 -21.68)"/><path class="cls-84" d="M4091,1579a14.46,14.46,0,0,1-8.77-4.53,57.64,57.64,0,0,1,8.26-13.5,14.44,14.44,0,0,1,8.77,4.53A57.64,57.64,0,0,1,4091,1579Z" transform="translate(1704.4 -21.68)"/><polygon class="cls-14" points="5771.1 1414.87 5764.77 1437.92 5766.95 1438.87 5779.5 1418.53 5771.1 1414.87"/><polygon class="cls-14" points="5780.89 1420.4 5768.92 1440.45 5770.92 1442.07 5788.01 1426.15 5780.89 1420.4"/><polygon class="cls-14" points="5791.05 1430.96 5773.3 1442.35 5775 1445.9 5795 1439.23 5791.05 1430.96"/><path class="cls-89" d="M4128.23,1594.59c.53-6.31,2.44-11.48,4.27-11.54s2.88,5,2.36,11.31c-.11,1.25-.27,2.45-.47,3.58a14.56,14.56,0,0,1-6.28-.82C4128.12,1596.3,4128.16,1595.46,4128.23,1594.59Z" transform="translate(1704.4 -21.68)"/><path class="cls-85" d="M4127,1599.44c.59,2.23,3.48,3.39,6.44,2.6s4.88-3.23,4.29-5.46-3.49-3.4-6.45-2.61S4126.36,1597.21,4127,1599.44Z" transform="translate(1704.4 -21.68)"/><path class="cls-91" d="M4118.34,1610.5l.06,0c1.91,1.38,5.59.51,8.31-1.85a67.26,67.26,0,0,0,6.81-6.8,10,10,0,0,0-6.43-4.68,70.75,70.75,0,0,0-7.47,6.32C4117.07,1606,4116.45,1609.11,4118.34,1610.5Z" transform="translate(1704.4 -21.68)"/><path class="cls-85" d="M4090,1579c-.65,1.84-3.2,2.61-5.69,1.72s-4-3.1-3.33-4.94,3.21-2.61,5.7-1.72S4090.63,1577.12,4090,1579Z" transform="translate(1704.4 -21.68)"/><path class="cls-85" d="M4091.51,1597.61c-.66,1.85-3.19,2.64-5.65,1.77s-3.91-3.09-3.25-4.94,3.19-2.64,5.64-1.77S4092.17,1595.76,4091.51,1597.61Z" transform="translate(1704.4 -21.68)"/><path class="cls-84" d="M4099,1608.14l-.05,0c-1.72,1-4.78,0-6.92-2.15a56.82,56.82,0,0,1-5.31-6.25,8.51,8.51,0,0,1,5.79-3.52,60.64,60.64,0,0,1,5.89,5.89C4100.34,1604.43,4100.66,1607.1,4099,1608.14Z" transform="translate(1704.4 -21.68)"/><path class="cls-84" d="M4092.09,1596a13,13,0,0,1-9.39-.69,63.73,63.73,0,0,1-1-16.13,13,13,0,0,1,9.39.69A63.73,63.73,0,0,1,4092.09,1596Z" transform="translate(1704.4 -21.68)"/><path class="cls-83" d="M3967.68,1610.14c10.71-2.14,28.53-3,33.79,4.87v-5.11a11.89,11.89,0,0,0-11.9-11.89h-17.92a11.89,11.89,0,0,0-11.9,11.89v6.86h.29A10.26,10.26,0,0,1,3967.68,1610.14Z" transform="translate(1704.4 -21.68)"/><path class="cls-83" d="M3898.72,1415.59s75.18-102.19,153.2,0c0,0-9.51,102.82-23.31,130.86,0,0-59.47,19.94-99.44,0C3929.17,1546.45,3906.34,1487.25,3898.72,1415.59Z" transform="translate(1704.4 -21.68)"/><path class="cls-87" d="M3926.94,1388.41c-1.27,3.38-2,5.42-2,5.42,3.08,64.55,10,122.16,14.79,156.88,26.59,8.45,58.13,3.43,75.57-.65,6.27-59.39,10.31-156.23,10.31-156.23q-1.35-3.91-2.7-7.56C3985,1358.43,3950.06,1371.75,3926.94,1388.41Z" transform="translate(1704.4 -21.68)"/><path class="cls-92" d="M3993.68,1422.88c0,13.84-7.06,25.06-15.77,25.06s-15.77-11.22-15.77-25.06,7.06-25.07,15.77-25.07S3993.68,1409,3993.68,1422.88Z" transform="translate(1704.4 -21.68)"/><path class="cls-93" d="M3977.91,1444.48c-8.34,0-15.17-10.3-15.73-23.34,0,.58,0,1.15,0,1.74,0,13.84,7.06,25.06,15.77,25.06s15.77-11.22,15.77-25.06c0-.59,0-1.16,0-1.74C3993.07,1434.18,3986.25,1444.48,3977.91,1444.48Z" transform="translate(1704.4 -21.68)"/><path class="cls-94" d="M3977.91,1444.48c8.34,0,15.16-10.3,15.72-23.34,0-.57,0-1.15,0-1.73,0-13.84-7.06-25.07-15.77-25.07s-15.77,11.23-15.77,25.07c0,.58,0,1.16,0,1.73C3962.74,1434.18,3969.57,1444.48,3977.91,1444.48Z" transform="translate(1704.4 -21.68)"/><path class="cls-95" d="M3972.59,1436.8h10.68c4.74,0,8.58-10.37,8.58-23.16v-65.56H3964v65.56C3964,1426.43,3967.85,1436.8,3972.59,1436.8Z" transform="translate(1704.4 -21.68)"/><path class="cls-96" d="M3929.91,1545.77c-12.23-33.23-24.47-81.61-30.24-129.91,18.52-24.21,47.5-44.82,78.27-45.69-1.17.46-29-3.54-63.67,27.61a130.57,130.57,0,0,0-16.5,17.54c10.08,84.15,29.31,127,30.66,131.81,3.14,1,26.15,14.95,75.56,5.61a187.42,187.42,0,0,0,24.62-6.29C3999.43,1555.36,3958.48,1559.55,3929.91,1545.77Z" transform="translate(1704.4 -21.68)"/><path class="cls-84" d="M3992.59,1311.46h-28c-12.44,0-22.53,13.21-22.53,29.51v47a36.48,36.48,0,0,0,36.49,36.49h.12a36.48,36.48,0,0,0,36.49-36.49v-47C4015.12,1324.67,4005,1311.46,3992.59,1311.46Z" transform="translate(1704.4 -21.68)"/><path class="cls-97" d="M3992.59,1311.46h-28c-12.44,0-22.53,13.21-22.53,29.51v47a36.48,36.48,0,0,0,36.49,36.49h.12a36.48,36.48,0,0,0,36.49-36.49v-47C4015.12,1324.67,4005,1311.46,3992.59,1311.46Z" transform="translate(1704.4 -21.68)"/><path class="cls-89" d="M4009.27,1351.54c0,18-10.77,32.52-24.06,32.52s-24.06-14.56-24.06-32.52,10.77-32.53,24.06-32.53S4009.27,1333.57,4009.27,1351.54Z" transform="translate(1704.4 -21.68)"/><path class="cls-37" d="M3993.66,1728.54a66.64,66.64,0,0,1-26.47,0,10,10,0,0,1-8-9.45q-1.89-47.77,0-95.56a10,10,0,0,1,8-9.45,67,67,0,0,1,26.47,0,10,10,0,0,1,8,9.45q1.88,47.79,0,95.56A10,10,0,0,1,3993.66,1728.54Z" transform="translate(1704.4 -21.68)"/><path class="cls-98" d="M3993.66,1728.54a10,10,0,0,0,8-9.45q1.88-47.77,0-95.56a10,10,0,0,0-8-9.45,67.13,67.13,0,0,0-20.91-.86c5.31,6.18,10.92,17.49,13.58,38.21,4.08,31.74-4.47,62.59-10.46,78.26A66.65,66.65,0,0,0,3993.66,1728.54Z" transform="translate(1704.4 -21.68)"/><path class="cls-99" d="M4019.3,1504.82c.15-2,.29-4.06.44-6.1v-20.8h-10.47v-16.56H4002l5-34.48,17-2,.34-2.4c.87-17.28,1.35-28.61,1.35-28.61-.57-1.64-1.13-3.22-1.69-4.79l-4.41,31.3-17,2-5.6,39h-25.24v-8.07l-22-4.51-2.26-24.35-20.9-1.84c.11,1.69.23,3.37.34,5l16,1.41,2.21,23.89,21.6,4.43v4h-19.28v15.07l-16.43.11c.16,1.68.32,3.35.49,5l15.94-.11v41.73h61.79v-40.25h5.48v21.91Z" transform="translate(1704.4 -21.68)"/><g class="cls-100"><path class="cls-101" d="M3955.64,1469.72v47h47v-47Zm42.84,42.84h-38.67v-38.68h38.67Z" transform="translate(1704.4 -21.68)"/></g><path class="cls-44" d="M3997.65,1479.13a2.47,2.47,0,1,1-2.47-2.46A2.47,2.47,0,0,1,3997.65,1479.13Z" transform="translate(1704.4 -21.68)"/><path class="cls-43" d="M3991.3,1479.13a2.46,2.46,0,1,1-2.46-2.46A2.46,2.46,0,0,1,3991.3,1479.13Z" transform="translate(1704.4 -21.68)"/><path class="cls-28" d="M3912.6,1659.54l31.81,43.13c.69.94,2.29,0,1.59-.93l-31.82-43.12c-.69-.95-2.29,0-1.58.92Z" transform="translate(1704.4 -21.68)"/><path class="cls-28" d="M3894.4,1663.21l37.61,35.92c.86.81,2.16-.48,1.3-1.3l-37.61-35.92c-.86-.82-2.16.48-1.3,1.3Z" transform="translate(1704.4 -21.68)"/><path class="cls-28" d="M4009.8,1710.71l37.94-40.52c.8-.86-.49-2.17-1.3-1.3l-37.94,40.52c-.81.86.49,2.17,1.3,1.3Z" transform="translate(1704.4 -21.68)"/><path class="cls-28" d="M4011.66,1719.56l62.58-44.1c1-.68.05-2.27-.92-1.59l-62.59,44.1c-1,.68,0,2.27.93,1.59Z" transform="translate(1704.4 -21.68)"/><path class="cls-95" d="M4000.78,1397.81h-40a7,7,0,0,1-7-7h0a7,7,0,0,1,7-7h40a7,7,0,0,1,7,7h0A7,7,0,0,1,4000.78,1397.81Z" transform="translate(1704.4 -21.68)"/><rect class="cls-95" x="5656.61" y="1318.36" width="8.97" height="21.23"/><rect class="cls-14" x="5661.1" y="1318.36" width="4.49" height="21.23"/><rect class="cls-95" x="5699.58" y="1318.36" width="8.97" height="21.23"/><rect class="cls-14" x="5704.07" y="1318.36" width="4.49" height="21.23"/><path class="cls-95" d="M4000.78,1397.81h-40a7,7,0,0,1-7-7h0a7,7,0,0,1,7-7h40a7,7,0,0,1,7,7h0A7,7,0,0,1,4000.78,1397.81Z" transform="translate(1704.4 -21.68)"/><path class="cls-39" d="M4000.78,1396.05h-40a7,7,0,0,1-6.95-6.13,8.67,8.67,0,0,0-.06.88,7,7,0,0,0,7,7h40a7,7,0,0,0,7-7,8.65,8.65,0,0,0-.05-.88A7,7,0,0,1,4000.78,1396.05Z" transform="translate(1704.4 -21.68)"/><path class="cls-30" d="M4098.13,399.24s17.17,10.95,26.33,26.95S4138.73,462,4138.73,462l-4.82,5.93s-25.81-44-40.19-43.5S4098.13,399.24,4098.13,399.24Z" transform="translate(1704.4 -21.68)"/><path class="cls-8" d="M4118.48,450.71l7.35,11.85,22.06-5.92L4136.45,443S4122.56,442.54,4118.48,450.71Z" transform="translate(1704.4 -21.68)"/><path class="cls-84" d="M4188.76,516.17c0,28.21-16.33,34.29-41.36,34.29s-49.23-1.67-49.23-29.87,18.24-66.3,43.27-66.3S4188.76,488,4188.76,516.17Z" transform="translate(1704.4 -21.68)"/><path class="cls-30" d="M3896.67,427s-17,10.22-26,25.36-13.94,34-13.94,34l4.83,5.71s25.38-41.57,39.7-40.94S3896.67,427,3896.67,427Z" transform="translate(1704.4 -21.68)"/><rect class="cls-38" x="5682.04" y="496.87" width="29.42" height="41.7"/><path class="cls-38" d="M4053.32,612.37c-7.63,2.51-13.67,7.24-18.73,13.34-27.55-55.84-31.92-60.87-24-67.24,3.24-2.6,6.59-.83,9.31,1.7,6.3,5.87,6.84,6.64,28.34,42C4050.21,605.4,4051.64,609,4053.32,612.37Z" transform="translate(1704.4 -21.68)"/><path class="cls-38" d="M3978.43,555.13l-7.21-.3c-6.54,4.91-9.75,11.45-13.22,17.87-7.06,13-14.34,25.95-21.45,39-1.45,2.68-2.52,5.56-3.77,8.35,9.14,1.07,17.12,5.31,25.2,9.25,4.82-9.43,7.94-19.53,11.71-29.39,4.1-10.71,8.69-21.23,12.3-32.13C3984.46,560.3,3984.38,559.51,3978.43,555.13Z" transform="translate(1704.4 -21.68)"/><path class="cls-14" d="M3993.48,549.42a122.77,122.77,0,0,1-27.7-3.16l-1.11,11.57c8.83,0,16,9.06,16,20.24h26.15c0-11.18,7.15-20.24,16-20.24l-1.12-11.69A122.46,122.46,0,0,1,3993.48,549.42Z" transform="translate(1704.4 -21.68)"/><path class="cls-102" d="M3883.55,395.41c0,1.26-.09,2.52-.09,3.8,0,68.57,49.77,124.17,111.16,124.17s111.15-55.6,111.15-124.17c0-1.28-.05-2.54-.08-3.8Z" transform="translate(1704.4 -21.68)"/><path class="cls-103" d="M4034.62,395.41h-3.22c-2.74,7.85-5.62,16.85-8.34,26.78h-58.74c-2.43-10.16-5-19.1-7.46-26.78h-3.18c6.68,20.59,14.18,50.72,17.72,89.38a251.42,251.42,0,0,1,.66,36c1,.23,2,.44,3,.64a253.91,253.91,0,0,0-.64-36.94c-.73-7.94-1.63-15.52-2.65-22.75h42.56a320.25,320.25,0,0,0-4.39,60.44c1-.16,2-.33,3-.52C4011.72,471.28,4024.24,424.82,4034.62,395.41Zm-63.28,63.32c-1.81-12.27-4-23.45-6.31-33.5h57.2c-2.75,10.31-5.3,21.56-7.38,33.5Z" transform="translate(1704.4 -21.68)"/><polygon points="5733.32 320.09 5733.32 318.44 5740.91 318.44 5743.39 310.98 5746.41 321.59 5748.15 318.44 5756.21 318.44 5756.21 320.09 5749.11 320.09 5745.92 325.87 5743.27 316.56 5742.1 320.09 5733.32 320.09"/><path d="M4055.38,344.51a3.57,3.57,0,1,1,3.56-3.57A3.56,3.56,0,0,1,4055.38,344.51Z" transform="translate(1704.4 -21.68)"/><path class="cls-29" d="M4026.52,349.13c-2.36,0-4.27-4-4.27-9s1.91-9,4.27-9,4.26,4,4.26,9S4028.87,349.13,4026.52,349.13Z" transform="translate(1704.4 -21.68)"/><polygon points="5662.91 320.04 5662.95 318.4 5655.36 318.25 5653.02 310.74 5649.8 321.28 5648.13 318.11 5640.06 317.95 5640.03 319.6 5647.12 319.74 5650.21 325.58 5653.04 316.32 5654.14 319.87 5662.91 320.04"/><path d="M3932,343.94a3.56,3.56,0,1,0-3.49-3.63A3.55,3.55,0,0,0,3932,343.94Z" transform="translate(1704.4 -21.68)"/><path class="cls-29" d="M3960.78,349.13c2.36.05,4.34-4,4.44-8.94s-1.73-9.07-4.09-9.11-4.34,4-4.44,8.94S3958.43,349.09,3960.78,349.13Z" transform="translate(1704.4 -21.68)"/><path class="cls-84" d="M4007.21,305.31h-25.29c-11.22,0-20.31,11.91-20.31,26.61v42.4a32.9,32.9,0,0,0,32.9,32.9h.12a32.9,32.9,0,0,0,32.9-32.9v-42.4C4027.53,317.22,4018.43,305.31,4007.21,305.31Z" transform="translate(1704.4 -21.68)"/><path class="cls-89" d="M4022.25,348.44c0,20.06-9.71,36.33-21.7,36.33s-21.69-16.27-21.69-36.33,9.71-36.32,21.69-36.32S4022.25,328.38,4022.25,348.44Z" transform="translate(1704.4 -21.68)"/><path class="cls-19" d="M4017.94,355a22.48,22.48,0,1,1-22.48-22.48A22.48,22.48,0,0,1,4017.94,355Z" transform="translate(1704.4 -21.68)"/><path class="cls-104" d="M4015.34,355a19.88,19.88,0,1,1-19.88-19.88A19.87,19.87,0,0,1,4015.34,355Z" transform="translate(1704.4 -21.68)"/><path class="cls-105" d="M4010.36,355a14.9,14.9,0,1,1-14.9-14.9A14.9,14.9,0,0,1,4010.36,355Z" transform="translate(1704.4 -21.68)"/><path class="cls-106" d="M4007,344.87a7.89,7.89,0,1,1-7.88-7.88A7.88,7.88,0,0,1,4007,344.87Z" transform="translate(1704.4 -21.68)"/><path class="cls-102" d="M3855.68,481.06l-4.93,9.49s-28.68,9.86-31.58,73.23c0,0,12.46,28.08,61.71,8.35,0,0,1.64-54.27-10.14-69.7l3.77-6.19S3865,481.06,3855.68,481.06Z" transform="translate(1704.4 -21.68)"/><path class="cls-107" d="M3847.63,559.6c-5-30.55,12.64-63.5,12.64-63.5L3865.8,486c-3.06-2.71-6.61-4.89-10.12-4.89l-4.93,9.49s-28.68,9.86-31.58,73.23c0,0,7.22,16.26,32.38,15.33C3850.3,574.2,3849,567.85,3847.63,559.6Z" transform="translate(1704.4 -21.68)"/><path class="cls-33" d="M3813.38,559.6v29.6s1.45,10.75,25.2,13,44-8,44-8l2.61-27.32S3851.33,588.06,3813.38,559.6Z" transform="translate(1704.4 -21.68)"/><path class="cls-30" d="M3813.38,593.75l13,53.13h7.83v-41S3819.32,601.53,3813.38,593.75Z" transform="translate(1704.4 -21.68)"/><path class="cls-30" d="M3862.59,606V645h5.9L3882,600.24S3870.41,606,3862.59,606Z" transform="translate(1704.4 -21.68)"/><path class="cls-37" d="M3833.37,606c0,1.52,13,48.19,13,48.19h12.74l6.08-48.19Z" transform="translate(1704.4 -21.68)"/><polygon class="cls-36" points="5548.63 588.26 5555.88 632.53 5561.81 632.53 5567.28 588.26 5548.63 588.26"/><path class="cls-39" d="M3867.08,573.31a63.74,63.74,0,0,1-36.92-4v31.53a64.73,64.73,0,0,0,8.42,1.32,84.63,84.63,0,0,0,28.5-2.54Z" transform="translate(1704.4 -21.68)"/><path class="cls-30" d="M3870.46,567a2.33,2.33,0,1,1-2.33-2.33A2.33,2.33,0,0,1,3870.46,567Z" transform="translate(1704.4 -21.68)"/><path class="cls-30" d="M3869.74,553.89a2,2,0,1,1-2-2A2,2,0,0,1,3869.74,553.89Z" transform="translate(1704.4 -21.68)"/><path class="cls-30" d="M3868.75,542a1.48,1.48,0,1,1-1.47-1.48A1.47,1.47,0,0,1,3868.75,542Z" transform="translate(1704.4 -21.68)"/><path class="cls-30" d="M3867.77,529.67a1.27,1.27,0,1,1-1.27-1.27A1.27,1.27,0,0,1,3867.77,529.67Z" transform="translate(1704.4 -21.68)"/><path class="cls-14" d="M3926.79,618.1s17.41-3.92,38.83,13.26,11.83,79.24,27.86,104.48-39.1,29.41-49.53,13.23S3897.58,621.78,3926.79,618.1Z" transform="translate(1704.4 -21.68)"/><path class="cls-108" d="M3947.66,620.87c3.6,22.26,17.86,105,36,136a31.74,31.74,0,0,0,3.37-1.2c-16.91-27.91-31.17-107.93-35.34-133.07C3950.3,621.92,3949,621.36,3947.66,620.87Z" transform="translate(1704.4 -21.68)"/><path class="cls-14" d="M4060.57,609.94s-26.46-2.08-33,9.58-12.12,89.89-12.52,104.23c-.05,1.64,39.45,8.71,40.65,7.5C4059.75,727.17,4089.16,616.08,4060.57,609.94Z" transform="translate(1704.4 -21.68)"/><path class="cls-108" d="M4019.29,725.32c1,.26,2.17.54,3.43.82,9.22-31.52,13.24-85.08,14.8-113.81a26.89,26.89,0,0,0-3.8,1.6C4032.06,643.08,4028,695.42,4019.29,725.32Z" transform="translate(1704.4 -21.68)"/><path class="cls-84" d="M4015,723.75s8.39-17.37,22-21.68,20.56,0,25,4.57,12.06,17.83,10.86,20.13S4037.27,746,4015,723.75Z" transform="translate(1704.4 -21.68)"/><path class="cls-33" d="M4188.76,518.85a45.32,45.32,0,1,1-45.31-45.32A45.32,45.32,0,0,1,4188.76,518.85Z" transform="translate(1704.4 -21.68)"/><circle class="cls-30" cx="4143.45" cy="518.85" r="38.07" transform="translate(5295.6 4636.3) rotate(-89.54)"/><path class="cls-109" d="M4159,540.44a38.08,38.08,0,0,1-34.23-54.75,38.07,38.07,0,1,0,52.93,49.85A37.88,37.88,0,0,1,4159,540.44Z" transform="translate(1704.4 -21.68)"/><path class="cls-110" d="M3896.31,415.55s32.51,44.66,45.75,47.38,10.57-50.17,5-55.71S3893.45,392.26,3896.31,415.55Z" transform="translate(1704.4 -21.68)"/><path class="cls-110" d="M4089.11,415.55s-32.5,44.66-45.75,47.38-10.57-50.17-5-55.71S4092,392.26,4089.11,415.55Z" transform="translate(1704.4 -21.68)"/><path class="cls-28" d="M3925,320.92a27.56,27.56,0,0,0,.25,37.05c.8.87,2.1-.43,1.3-1.3a25.65,25.65,0,0,1-.25-34.45c.79-.88-.51-2.18-1.3-1.3Z" transform="translate(1704.4 -21.68)"/><path class="cls-28" d="M3909.79,314.35a62.52,62.52,0,0,0,.12,60.18c.56,1,2.15.11,1.59-.93a60.46,60.46,0,0,1-.12-58.32c.56-1-1-2-1.59-.93Z" transform="translate(1704.4 -21.68)"/><path class="cls-28" d="M4064.2,330a29.37,29.37,0,0,1,0,32.26c-.64,1,1,1.92,1.59.93a31.2,31.2,0,0,0,0-34.12c-.63-1-2.23-.07-1.58.93Z" transform="translate(1704.4 -21.68)"/><path class="cls-28" d="M4074,315.28a47.55,47.55,0,0,1,3.68,44.66c-.45,1.08,1.13,2,1.59.93a49.46,49.46,0,0,0-3.68-46.52c-.63-1-2.22-.07-1.59.93Z" transform="translate(1704.4 -21.68)"/><path class="cls-84" d="M3984.45,756.59s-8.95-23-24.67-28.93-24.15-1.38-29.68,3.72-18.46,24.5-17.2,27.29S3966.39,774.41,3984.45,756.59Z" transform="translate(1704.4 -21.68)"/><path class="cls-111" d="M3965.29,744s-8.23-10.5-21.29-11.95-20.53,12.26-18.39,14.4,11.65-4.59,21-1.14S3966.52,750.16,3965.29,744Z" transform="translate(1704.4 -21.68)"/><path class="cls-112" d="M3034.6,1687c-1.3-.43-32.09-10.94-53.4-69.52-21.64-59.53,39.6-124.1,42.22-126.82l10.95,10.55c-.77.81-57.24,60.57-38.88,111.07,18.47,50.79,43.63,60.18,43.88,60.27l-.1,0Zm-.23-185.79-5.47-5.27,5.48,5.27Z" transform="translate(1704.4 -21.68)"/><path d="M2998.68,1589.2a14.46,14.46,0,1,1-14.46-14.46A14.45,14.45,0,0,1,2998.68,1589.2Z" transform="translate(1704.4 -21.68)"/><path d="M3055.87,1677.41a21.29,21.29,0,1,1-21.29-21.29A21.29,21.29,0,0,1,3055.87,1677.41Z" transform="translate(1704.4 -21.68)"/><path class="cls-32" d="M3107.13,1687.85l.9-2.71L3039,1651.52l-1,3a23.14,23.14,0,1,1-14.36,43.25l-1.17,3.52,75.47,14.38.9-2.71-26.14-15.58,4.22-12.68Z" transform="translate(1704.4 -21.68)"/><path class="cls-14" d="M2996.84,1587.8a8.46,8.46,0,1,1-8.46-8.46A8.46,8.46,0,0,1,2996.84,1587.8Z" transform="translate(1704.4 -21.68)"/><path class="cls-14" d="M3047.79,1676.48c-3,5.75-10.84,7.59-17.41,4.11s-9.44-11-6.39-16.72,10.84-7.58,17.41-4.1S3050.83,1670.74,3047.79,1676.48Z" transform="translate(1704.4 -21.68)"/><path class="cls-14" d="M3047.65,1701.71a1.37,1.37,0,1,1-1.37-1.36A1.36,1.36,0,0,1,3047.65,1701.71Z" transform="translate(1704.4 -21.68)"/><path class="cls-14" d="M3062.22,1690.68a2,2,0,1,1-2-2A2,2,0,0,1,3062.22,1690.68Z" transform="translate(1704.4 -21.68)"/><path class="cls-14" d="M3062.22,1671a1.62,1.62,0,1,1-3.23,0,1.62,1.62,0,0,1,3.23,0Z" transform="translate(1704.4 -21.68)"/><path class="cls-112" d="M3239.44,1340.16c1.06.85,26.08,21.67,25.07,84-1,63.33-81.29,101.78-84.71,103.38l-6.47-13.76c1-.47,75.1-36.14,76-89.87.88-54-19.26-71.79-19.46-72l.07.06Zm-66.11,173.62,3.24,6.88-3.24-6.88Z" transform="translate(1704.4 -21.68)"/><path d="M3238.07,1444.36a14.46,14.46,0,1,1,8.35,18.66A14.47,14.47,0,0,1,3238.07,1444.36Z" transform="translate(1704.4 -21.68)"/><path d="M3216.14,1341.55a21.29,21.29,0,1,1,12.29,27.48A21.29,21.29,0,0,1,3216.14,1341.55Z" transform="translate(1704.4 -21.68)"/><path class="cls-32" d="M3172,1313.49l-1.81,2.21,52.53,56.07,2-2.45a23.14,23.14,0,1,1,28.86-35.27l2.34-2.87-65.36-40.37-1.81,2.21,18.86,23.88-8.47,10.34Z" transform="translate(1704.4 -21.68)"/><path class="cls-14" d="M3239.29,1446.33a8.46,8.46,0,1,1,4.89,10.92A8.47,8.47,0,0,1,3239.29,1446.33Z" transform="translate(1704.4 -21.68)"/><path class="cls-14" d="M3223.36,1345.3c4.89-4.29,12.83-3.22,17.73,2.38s4.9,13.61,0,17.89-12.83,3.22-17.73-2.38S3218.46,1349.58,3223.36,1345.3Z" transform="translate(1704.4 -21.68)"/><path class="cls-14" d="M3232.5,1321.79a1.36,1.36,0,1,1,.78,1.75A1.36,1.36,0,0,1,3232.5,1321.79Z" transform="translate(1704.4 -21.68)"/><path class="cls-14" d="M3215,1326.88a2,2,0,1,1,1.15,2.58A2,2,0,0,1,3215,1326.88Z" transform="translate(1704.4 -21.68)"/><path class="cls-14" d="M3207.94,1345.23a1.62,1.62,0,1,1,.93,2.08A1.6,1.6,0,0,1,3207.94,1345.23Z" transform="translate(1704.4 -21.68)"/><polygon class="cls-14" points="4822.52 1364.21 4817.24 1364.21 4819.08 1335.13 4820.69 1335.13 4822.52 1364.21"/><path class="cls-113" d="M3136.16,1394.59h-41.35A10.19,10.19,0,0,1,3105,1384.4h21a10.19,10.19,0,0,1,10.19,10.19Z" transform="translate(1704.4 -21.68)"/><rect class="cls-112" x="4747.01" y="1574.25" width="146.6" height="7.25"/><path class="cls-114" d="M3211.09,1597.33H3016.48L3032,1437.65c1.16-27.6,37.63-49.59,82.22-49.59h0c44.6,0,81.06,22,82.23,49.59Z" transform="translate(1704.4 -21.68)"/><path class="cls-115" d="M3134.63,1588.78c-53.79,0-96.35-31.55-92.73-68.75l8.84-90.93c.58-13.73,9.89-26.06,24.59-35-25.18,8.38-42.54,24.65-43.33,43.55l-15.52,159.68h194.61l-.79-8.55Z" transform="translate(1704.4 -21.68)"/><path class="cls-116" d="M3196.45,1437.65c-1.17-27.6-37.63-49.59-82.23-49.59h0a130.87,130.87,0,0,0-20.29,1.56c-11.13,8.44-18,19.13-18.48,30.83l-10.55,108.44c-2.69,27.73,29,51.25,69.13,51.25h75.48Z" transform="translate(1704.4 -21.68)"/><path class="cls-117" d="M3196.45,1437.65c-1.17-27.6-37.63-49.59-82.23-49.59h0a130.87,130.87,0,0,0-20.29,1.56c-11.13,8.44-18,19.13-18.48,30.83l-10.55,108.44c-2.69,27.73,29,51.25,69.13,51.25h75.48Z" transform="translate(1704.4 -21.68)"/><path class="cls-118" d="M3123,1402c5.05,0,35,6.16,49.35,22.34s20,142,20,142-17.35-128-34.66-140S3098.47,1402,3123,1402Z" transform="translate(1704.4 -21.68)"/><rect class="cls-119" x="4774.67" y="1389.05" width="91.57" height="56.8" rx="9.13"/><path class="cls-14" d="M3150.88,1410.72h-69.65c-6.05,0-11,3.4-11,7.6v41.6c0,4.2,4.91,7.6,11,7.6h69.65c6,0,11-3.4,11-7.6v-41.6C3161.84,1414.12,3156.93,1410.72,3150.88,1410.72Zm9.53,49.2c0,3.65-4.28,6.61-9.53,6.61h-69.65c-5.25,0-9.53-3-9.53-6.61v-41.6c0-3.64,4.28-6.6,9.53-6.6h69.65c5.25,0,9.53,3,9.53,6.6Z" transform="translate(1704.4 -21.68)"/><path d="M3136,1560.86H3097.3c-7.46-113.4-4.74-72-5.36-81.44h49.4l0,.64Zm-37.56-1.19h36.45l5.2-79.05h-46.86Z" transform="translate(1704.4 -21.68)"/><polygon points="4720.87 1579.43 4725.28 1591.27 4757.12 1591.27 4759.99 1585.35 4794.04 1585.35 4796.91 1591.27 4839.89 1591.27 4842.76 1585.35 4876.8 1585.35 4879.67 1591.27 4910.2 1591.27 4915.49 1579.43 4720.87 1579.43"/><path class="cls-113" d="M3019.18,1595.6c4.74-44.56,10-98.81,15.64-161.3,6-42.64,92.36-61.35,141-29-47.23-34.65-139.07-16.36-145.94,28.7-13.49,130.19-13.93,142.08-16.11,165.14,46.38-.29,135-.7,197.29-1.76C3194.87,1597.05,3063.58,1595.87,3019.18,1595.6Z" transform="translate(1704.4 -21.68)"/><path class="cls-116" d="M3127.67,1348.88c0,4.67-5.45,8.45-12.18,8.45s-12.19-3.78-12.19-8.45,5.45-8.45,12.19-8.45S3127.67,1344.22,3127.67,1348.88Z" transform="translate(1704.4 -21.68)"/><path class="cls-115" d="M3117.05,1356.24c-6.73,0-12.19-3.78-12.19-8.44a7.1,7.1,0,0,1,2.83-5.41c-2.68,1.55-4.39,3.88-4.39,6.49,0,4.67,5.45,8.45,12.19,8.45a14.78,14.78,0,0,0,9.36-3A15.7,15.7,0,0,1,3117.05,1356.24Z" transform="translate(1704.4 -21.68)"/><path class="cls-118" d="M3124.08,1346.13c0,2.06-2.7,3.73-6,3.73s-6-1.67-6-3.73,2.69-3.74,6-3.74S3124.08,1344.06,3124.08,1346.13Z" transform="translate(1704.4 -21.68)"/><path class="cls-119" d="M3100,1482.72c0,.76-.9,1.38-2,1.38s-2-.62-2-1.38.89-1.39,2-1.39S3100,1482,3100,1482.72Z" transform="translate(1704.4 -21.68)"/><path class="cls-119" d="M3104.31,1557.17c0,.76-.89,1.38-2,1.38s-2-.62-2-1.38.89-1.38,2-1.38S3104.31,1556.41,3104.31,1557.17Z" transform="translate(1704.4 -21.68)"/><path class="cls-119" d="M3133,1557.17c0,.76-.89,1.38-2,1.38s-2-.62-2-1.38.9-1.38,2-1.38S3133,1556.41,3133,1557.17Z" transform="translate(1704.4 -21.68)"/><path class="cls-119" d="M3138.54,1482.72c0,.76-.89,1.38-2,1.38s-2-.62-2-1.38.89-1.39,2-1.39S3138.54,1482,3138.54,1482.72Z" transform="translate(1704.4 -21.68)"/><polygon class="cls-118" points="4804.73 1463.96 4840.95 1463.96 4833.37 1532.46 4835.4 1468.1 4804.73 1463.96"/><rect class="cls-120" x="4810.34" y="1404.89" width="6.51" height="36.98"/><rect class="cls-120" x="4798.34" y="1411.59" width="6.98" height="21.34"/><rect class="cls-120" x="4786.7" y="1414.94" width="5.01" height="10.92"/><rect class="cls-120" x="4820.45" y="1410.97" width="4.56" height="21.96"/><rect class="cls-120" x="4828.42" y="1414.94" width="4.12" height="10.92"/><rect class="cls-120" x="4835.4" y="1416.18" width="3.04" height="7.2"/><rect class="cls-120" x="4841.53" y="1418.17" width="5.91" height="4.1"/><rect class="cls-120" x="4850.44" y="1412.96" width="3.76" height="14.89"/><path class="cls-14" d="M3088.17,1473.52c0,1.12-1.31,2-2.93,2s-2.93-.92-2.93-2,1.31-2,2.93-2S3088.17,1472.4,3088.17,1473.52Z" transform="translate(1704.4 -21.68)"/><path class="cls-14" d="M3103.86,1473.52c0,1.12-1.31,2-2.94,2s-2.93-.92-2.93-2,1.32-2,2.93-2S3103.86,1472.4,3103.86,1473.52Z" transform="translate(1704.4 -21.68)"/><path class="cls-14" d="M3118.42,1473.52c0,1.12-1.31,2-2.93,2s-2.94-.92-2.94-2,1.32-2,2.94-2S3118.42,1472.4,3118.42,1473.52Z" transform="translate(1704.4 -21.68)"/><path class="cls-14" d="M3131.94,1473.52c0,1.12-1.31,2-2.93,2s-2.93-.92-2.93-2,1.31-2,2.93-2S3131.94,1472.4,3131.94,1473.52Z" transform="translate(1704.4 -21.68)"/><path class="cls-43" d="M3147.68,1473.52c0,1.75-2,3.17-4.57,3.17s-4.57-1.42-4.57-3.17,2.05-3.16,4.57-3.16S3147.68,1471.78,3147.68,1473.52Z" transform="translate(1704.4 -21.68)"/><path class="cls-43" d="M3147.68,1473.52c0,1.75-2,3.17-4.57,3.17s-4.57-1.42-4.57-3.17,2.05-3.16,4.57-3.16S3147.68,1471.78,3147.68,1473.52Z" transform="translate(1704.4 -21.68)"/><path class="cls-14" d="M3143.78,1476.22c-2.52,0-4.56-1.41-4.56-3.16a2.6,2.6,0,0,1,1-2,2.94,2.94,0,0,0-1.71,2.44c0,1.75,2.05,3.17,4.57,3.17a5.51,5.51,0,0,0,3.53-1.18A5.85,5.85,0,0,1,3143.78,1476.22Z" transform="translate(1704.4 -21.68)"/><path class="cls-28" d="M3129.84,1626.91c-1.7,38-2.69,77.35,15.94,111.76.57,1,2.16.11,1.59-.93-18.46-34.08-17.37-73.21-15.69-110.83.05-1.18-1.79-1.18-1.84,0Z" transform="translate(1704.4 -21.68)"/><path class="cls-28" d="M3112.27,1633.46a316.71,316.71,0,0,0,13.14,119.78c.35,1.13,2.12.65,1.77-.49a315.78,315.78,0,0,1-13.07-119.29c.09-1.18-1.75-1.17-1.84,0Z" transform="translate(1704.4 -21.68)"/><path class="cls-28" d="M3096.85,1627.17a63.93,63.93,0,0,1-5,41.87c-.52,1.06,1.07,2,1.58.92a65.94,65.94,0,0,0,5.16-43.28c-.25-1.15-2-.67-1.77.49Z" transform="translate(1704.4 -21.68)"/><path class="cls-28" d="M3054.11,1731.31c-13.46,4.17-22.2,20.06-15.19,33.3s25.21,14.52,36.13,5.83l-4.71-2c-.79,16.73,7.84,34.59,26.16,36.79,15.81,1.9,28-11.26,25.69-26.67l-5,2.12c13.92,22,58.45,1.31,40.93-20.37l-3.9,3.9c21.73,16.81,56.49-27.5,25.3-48.86-2.93-2-5.69,2.77-2.78,4.76,24.59,16.84-3.63,51.8-18.62,40.2a2.76,2.76,0,0,0-3.9,3.9c11.43,14.14-22.31,29.4-32.27,13.69-1.76-2.79-5.48-.87-5,2.12,3.86,25.89-43,29.69-41-11.58.12-2.63-3-3.31-4.71-2-8.18,6.51-22.41,5.27-27.46-4.71-5.14-10.16,1.83-22.08,11.89-25.2,3.38-1,1.94-6.37-1.47-5.32Z" transform="translate(1704.4 -21.68)"/><path class="cls-28" d="M3196.49,1623.51a110.84,110.84,0,0,0,4.47,57.73c.39,1.1,2.17.63,1.77-.49a109,109,0,0,1-4.47-56.75c.22-1.16-1.56-1.65-1.77-.49Z" transform="translate(1704.4 -21.68)"/><path class="cls-28" d="M3181.82,1623.91a176.73,176.73,0,0,1,1.69,55.41c-.15,1.17,1.69,1.15,1.84,0a178.32,178.32,0,0,0-1.76-55.9c-.22-1.16-2-.67-1.77.49Z" transform="translate(1704.4 -21.68)"/><path class="cls-28" d="M3173.44,1630.25a152.44,152.44,0,0,1-8.42,53.6c-.38,1.12,1.39,1.6,1.78.49a153.63,153.63,0,0,0,8.48-54.09.92.92,0,0,0-1.84,0Z" transform="translate(1704.4 -21.68)"/><path class="cls-28" d="M3213.92,1672.86c16.62,8.43,14.18,38.8-16.94,33.85-6.87-1.08-2.08,18.45-23.06,4.7-3-2-5.75,2.82-2.79,4.76,10.91,7.16,23.21,8.16,27.77-6.06l-3.39,1.92c12.56,2,26.29.23,32.08-12.75,5.13-11.51.24-25.54-10.88-31.18-3.16-1.61-6,3.15-2.79,4.76Z" transform="translate(1704.4 -21.68)"/><path class="cls-28" d="M3042.57,1623.44a36.87,36.87,0,0,0,5.16,28.49c.64,1,2.23.07,1.58-.93a35,35,0,0,1-5-27.07c.26-1.15-1.51-1.65-1.77-.49Z" transform="translate(1704.4 -21.68)"/><path class="cls-28" d="M3032.86,1622.08v8.17a.92.92,0,0,0,1.84,0v-8.17a.92.92,0,0,0-1.84,0Z" transform="translate(1704.4 -21.68)"/><use width="145.89" height="143.83" transform="translate(1753.61 913.8) scale(0.69)" xlink:href="#Adobe_ilustrator"/><use width="145.89" height="143.83" transform="translate(1753.61 913.8) scale(0.69)" xlink:href="#Adobe_ilustrator"/><use width="145.89" height="143.83" transform="translate(1753.61 913.8) scale(0.69)" xlink:href="#Adobe_ilustrator"/><use width="145.89" height="143.83" transform="translate(1746.59 932.72) scale(0.61)" xlink:href="#Adobe_ilustrator"/><use width="145.89" height="143.83" transform="translate(4431.16 872.62) scale(0.61)" xlink:href="#Adobe_ilustrator"/><use width="145.89" height="143.83" transform="translate(5303.69 872.62) scale(0.61)" xlink:href="#Adobe_ilustrator"/><use width="145.89" height="143.83" transform="translate(4431.16 1934.44) scale(0.61)" xlink:href="#Adobe_ilustrator"/><use width="145.89" height="143.83" transform="translate(5303.69 1934.44) scale(0.61)" xlink:href="#Adobe_ilustrator"/></g></g></svg>